<?xml version="1.0" encoding="utf-8"?>
<!-- Generator: Adobe Illustrator 11.0, SVG Export Plug-In . SVG Version: 6.0.0 Build 78)  -->
<!DOCTYPE svg PUBLIC "-//W3C//DTD SVG 1.0//EN"    "http://www.w3.org/TR/2001/REC-SVG-20010904/DTD/svg10.dtd" [
	<!ENTITY ns_flows "http://ns.adobe.com/Flows/1.0/">
	<!ENTITY ns_extend "http://ns.adobe.com/Extensibility/1.0/">
	<!ENTITY ns_ai "http://ns.adobe.com/AdobeIllustrator/10.0/">
	<!ENTITY ns_graphs "http://ns.adobe.com/Graphs/1.0/">
	<!ENTITY ns_vars "http://ns.adobe.com/Variables/1.0/">
	<!ENTITY ns_imrep "http://ns.adobe.com/ImageReplacement/1.0/">
	<!ENTITY ns_sfw "http://ns.adobe.com/SaveForWeb/1.0/">
	<!ENTITY ns_custom "http://ns.adobe.com/GenericCustomNamespace/1.0/">
	<!ENTITY ns_adobe_xpath "http://ns.adobe.com/XPath/1.0/">
	<!ENTITY ns_svg "http://www.w3.org/2000/svg">
	<!ENTITY ns_xlink "http://www.w3.org/1999/xlink">
]>
<svg 
	 xmlns:x="&ns_extend;" xmlns:i="&ns_ai;" xmlns:graph="&ns_graphs;" i:viewOrigin="248.5713 429.6982" i:rulerOrigin="0 0" i:pageBounds="0 841.8896 595.2754 0"
	 xmlns="&ns_svg;" xmlns:xlink="&ns_xlink;" xmlns:a="http://ns.adobe.com/AdobeSVGViewerExtensions/3.0/"
	 width="100.027" height="19.019" viewBox="0 0 100.027 19.019" overflow="visible" enable-background="new 0 0 100.027 19.019"
	 xml:space="preserve">
	<metadata>
		<variableSets  xmlns="http://ns.adobe.com/Variables/1.0/">
			<variableSet  varSetName="binding1" locked="none">
				<variables></variables>
				<v:sampleDataSets  xmlns="http://ns.adobe.com/GenericCustomNamespace/1.0/" xmlns:v="http://ns.adobe.com/Variables/1.0/">
					</v:sampleDataSets>
			</variableSet>
		</variableSets>
		<sfw  xmlns="&ns_sfw;">
			<slices></slices>
			<sliceSourceBounds  y="410.68" x="248.571" height="19.019" width="100.027" bottomLeftOrigin="true"></sliceSourceBounds>
		</sfw>
		<x:xmpmeta  x:xmptk="XMP toolkit 3.0-29, framework 1.6" xmlns:x="adobe:ns:meta/">
			<rdf:RDF  xmlns:iX="http://ns.adobe.com/iX/1.0/" xmlns:rdf="http://www.w3.org/1999/02/22-rdf-syntax-ns#">
				<rdf:Description  rdf:about="" xmlns:pdf="http://ns.adobe.com/pdf/1.3/"></rdf:Description>
				<rdf:Description  rdf:about="" xmlns:tiff="http://ns.adobe.com/tiff/1.0/"></rdf:Description>
				<rdf:Description  rdf:about="" xmlns:xapGImg="http://ns.adobe.com/xap/1.0/g/img/" xmlns:xap="http://ns.adobe.com/xap/1.0/">
					<xap:CreateDate>2022-12-18T20:41:25Z</xap:CreateDate>
					<xap:ModifyDate>2022-12-18T21:09:02Z</xap:ModifyDate>
					<xap:CreatorTool>Illustrator</xap:CreatorTool>
					<xap:Thumbnails>
						<rdf:Alt>
							<rdf:li  rdf:parseType="Resource">
								<xapGImg:format>JPEG</xapGImg:format>
								<xapGImg:width>256</xapGImg:width>
								<xapGImg:height>52</xapGImg:height>
								<xapGImg:image>/9j/4AAQSkZJRgABAgEASABIAAD/7QAsUGhvdG9zaG9wIDMuMAA4QklNA+0AAAAAABAASAAAAAEA
AQBIAAAAAQAB/+4ADkFkb2JlAGTAAAAAAf/bAIQABgQEBAUEBgUFBgkGBQYJCwgGBggLDAoKCwoK
DBAMDAwMDAwQDA4PEA8ODBMTFBQTExwbGxscHx8fHx8fHx8fHwEHBwcNDA0YEBAYGhURFRofHx8f
Hx8fHx8fHx8fHx8fHx8fHx8fHx8fHx8fHx8fHx8fHx8fHx8fHx8fHx8fHx8f/8AAEQgANAEAAwER
AAIRAQMRAf/EAaIAAAAHAQEBAQEAAAAAAAAAAAQFAwIGAQAHCAkKCwEAAgIDAQEBAQEAAAAAAAAA
AQACAwQFBgcICQoLEAACAQMDAgQCBgcDBAIGAnMBAgMRBAAFIRIxQVEGE2EicYEUMpGhBxWxQiPB
UtHhMxZi8CRygvElQzRTkqKyY3PCNUQnk6OzNhdUZHTD0uIIJoMJChgZhJRFRqS0VtNVKBry4/PE
1OT0ZXWFlaW1xdXl9WZ2hpamtsbW5vY3R1dnd4eXp7fH1+f3OEhYaHiImKi4yNjo+Ck5SVlpeYmZ
qbnJ2en5KjpKWmp6ipqqusra6voRAAICAQIDBQUEBQYECAMDbQEAAhEDBCESMUEFURNhIgZxgZEy
obHwFMHR4SNCFVJicvEzJDRDghaSUyWiY7LCB3PSNeJEgxdUkwgJChgZJjZFGidkdFU38qOzwygp
0+PzhJSktMTU5PRldYWVpbXF1eX1RlZmdoaWprbG1ub2R1dnd4eXp7fH1+f3OEhYaHiImKi4yNjo
+DlJWWl5iZmpucnZ6fkqOkpaanqKmqq6ytrq+v/aAAwDAQACEQMRAD8A9B/mD5j1XQdEgn0pLVr+
8vbawgk1BnS1je5kEavM0YLUqQop3IxVgv8AyvfWdEvX0Lzn5Sn0zzBQ/U5YrqzTTLuh+1FeXktq
q+JX4mUdRXbFUX5YsdM8+T3U+veZm1u7hCm40bQr24g0izD14w+taNH9akFDzaRzX+RRtirIn/Jv
8s5G5SaHFI9AC8kk7saCgqzSEnbxxVLPM3kPyV5d0qfWbbVtR8p+gyk6laXt3JDGzsFUzWsrz27x
8iOXOOlO464qxyP/AJyDOlW0Wm6jYJ5o1+VvS02fyxc2d5BqH8kghWdrm3/4sBjYKehIpirKPI/n
Tz3qHmhtE82aTY6XNPpx1SG0s7h7ie1T11hSK8YgIXk5MVMe3wtir0HFUHrN8+n6PfX6IJHtLeWd
YyaBjGhcAkVpWmKsR/Jv81rL8zPKkmu29i2my2909ndWbyCbjIiJICsgWPkpWUblRvXFWdYq7FXY
q7FVk3rejJ6BUTcT6RcEqGp8PIAg0r1xV4D5W/5ytuNd8vRzWHkbWdZ16Kq6hbaTC89pGa/A3rKJ
HXmN+JTbxPUqso/LP/nIry3508xSeWLzTbry95kQNw0++p+8aMFnjVqIwkVQWKsg26Yq9ZxV2Kux
V2KuxVJPM3nTy15YbTv07erYpqlyLKzmkDemZ2UsqswBCVCndqD3xVOyAwIIqDsQehGKvB/+cOvM
Wr6t+Wt5a6jcPcppWoNbWTSEsyQGGOQR1P7Ksx4+FadKYq94xVI/PD+bU8p6k3lCOCXzJ6VNNS5Y
LFzLAMST8NVTkVDbFqA7Yqwf8nPzf1LzNd3vlPzhp50Tz5o68ryyZSiXEQoPWhBLeI5AEgghlJB2
VeqYq7FXYq7FUDrmh6VrukXej6tbLd6dexmK5t3rRlPuKEEHdWG4O43xV5PY6brnmq60/wDLvzYJ
ntPL7z3Ovi5Yc9Us4pjHo8gdf72KYKzT9G5x0f7W6rKZPPb2Oot5e0Ty9KZNKna1vNOjQRmO2e2l
lsbuBYgyG2nli9It+w2xG2Ksy0i5vLrSbK5vrf6pezwRSXVpXl6UroGeOvfgxIxVh2r/AJjatol1
cSavoc1to1nJe+vqCh5A8URgjslgAHxzXk1yESP/ACTiqV6zYWXlDVdO/MHTdMbTBqwjs/NOiQqh
mne5QizCRRFke7S8ZIaoaMHYk0HIKp/+Wfli80vSZdY1yHj5u19hea/KziVlk39K2Vh8IjtoyI0V
dup7klVmOKsc/Mm+Fh+Xfmi9Lcfq+k30inavJbdyoFdqk9MVeX/84caabT8o5Lkj/joapc3AJ8ES
KDbbpWE4q9zxV5C/5/Sa352l8pfl75fbzTNZtTUtVe5FnYQANRj63pzl16itNz9kNiq+H86NZT8+
o/yyvNMtxa3FssiXkMjtJHMLI3bhiwUOnwlR8CnocVet4qgddvxp2iahqBbiLO2muC223pRl677d
u+KvDv8AnC7TTb/ljqN6wo97qsvE06xxQQqO38/Pv/HFUk/MuztdU/5y18mwaIivqNnFbT628Qpx
EDyTH1SP2vq/Hr2KjwxV6t+a/wCdegfl99TsGtptZ8yakQNO0K0I9aTk3BWc0YorP8K0Vix6A0NF
WN/mV+c35geSfy703zVqflqy0+/vdRhtG0mS7ku2WGWCaYl3jjgWOQeiBQcxv9GKs68zea9Rj/Kq
/wDN2kotvexaM+r20NwOaqUt/rPpuBxrsOPbFWD/APQwr3vkLy5qGg6LJq3nbzNBI1j5dgqQjW0r
wXE8rdUgSSJuJO7e3xEKrvyD/O3zB5+1DXtD8zaXDpuuaIy+olssiIRzaORHSV5GV43UA/Fv7UxV
4v8A85LfmhrHnX9G+XLfyxe6dYRanMNK1K55L+kJIf8AR/3CGNBSso6O3UVpir6I8t+ePPOp+VvM
ms+aPLLeVI9Pt5JLC2kuPWmcRwu8sjOqpQAhePw+OKvEfyK8/S+RvyfhtdG0qXX/ADh5l1S7m0nR
4AxJjiSKBp5iq1WGMxn5mu4+Iqq9K/If88PMnnnXNd8teatKg0zXtGq7JbLIi0ST0ZY5EleVleN6
ftb+ApirIPzX/OS28lXumeX9L059c84a2wXTNJjcRqA7+mskz78VLVptvQ7gCuKvONc/Mbzj5W/N
jyk/5meWdEe5vg1vpOsaS9wJrRLplhlV2mYrJ6ZkHIcaAElTvuq9E/N780L7yDrHlCb04pdF1e+e
w1dHBEiI4ThNE9QAY/iJB2YbbdQqwDzv/wA5UapofmyEaZ5dN55HS7fT5tblWVfrNxC3Gf6pKtYq
R70FG507Yq9E/Nn847TyPNpujafYPrfm7W3WPStGiYJXm3prJK9DxUv8K+Jr0AJCrCdW/Oz81vI/
nLy/pX5h6LpA0nzFII7e40h7gyQkuiPzaVmV2i9VSyqor2OKvfMVYXo1L382fMl50XStN07TFHcy
SvPeSH5cJYgPpxV41+YvnD80ND84XtpB5mEK6VdTPALmS0sJmsJ4YrhJZBMDa3UArNGrJbtKjx8e
rYq9h/KfzP5g8y/l9b65eyRXdxd+q+nTFPqxliGyC4RPUWORZA0b8Kj4eQG9MVeAXX5t/mjquoS3
q+YbWGLS3nH1LnBHG97bgqII7CIx307POUW2V3dXB5sBRlCr3Hz1Dq1j+VVnfajcy3eraLPpeq3k
svpq8slpewXE6MIljShVWUBQO2KvRsVdirzP/nJPU/0d+SfmaUGjzQw2qjx+sXEcTD/gGOKqv/OO
mmjT/wAlvK0FKGS2e5Pv9Zmknr/yUxV3/OQ/mm68tflDr99ZuY7y4iSxt3B4spu3WF2U9eSxsxFN
64qlX/OLnk2z8vflNpt4sYGoa8DqF7NTdg5IgWv8qxBdvEnxxV55+VmqWnnT/nK/zV5jtmWSx060
mjspVNVYQ+jYq6+0i83r74q+n8VYR+d+qfoz8ovNt1XiW02e3U71DXK+gCKe8mKvOfyO8n+br38j
/LSaB5pby4tyt7LeelZwXTyNJdyBWV5aFCI1A2H04q9G/Lr8pPLnkiW9v4JbjVfMGpktqWvag4lu
5qnkV5UHFa70HXapNBirxL8iLcfmB+fnnHz3qYFwmjSFNNR/iERmd4bUqDUfu7e3YfM1xVE/85la
9HfSeVPIltIDeXl2L6dBuUBrbW5I2+0ZZfuxV6z+d91Bof5J+ZxF+7gj0xrGJa0otwFtVX/kpTFW
Gf8AOIvk6PT/AMuIPMlzWXUNXMsVs79YbGCeTjCleitOZJTTryHhirH/APnE0jWfOP5j+bOqahfK
YXp1+sTz3D79O6YqrfnLXXv+cmvy38ufbh09Y9RdKVHITvO4I/1LJa4q9V/PPUxpv5Qebbknjz02
a2B97ofVx495cVed/wDOHvk+Kz8gf4puR6t/qjy21lK25isLeZv3SeAa59V28dvDFUn/AOcXz+mv
zT/M3zUKmOa7ZIWNfs3V1NMFHX7Kwr+GKsc0rVfNWof85WeadX0rQY/Mep6MLmK1sZbyOyWGKD07
ITLJIjg0VqcQP2q1xVmcP5P/AJofmD+ZOneb/wAy/qmlaVosiNp+hWcnrllik9VULKWSjNT1HLcm
pQBRSiqWf85lTXN5e+RPL9k/+m3t3O8YHUOWghhPTu0jfdir1zVPyV8lapZeVtPvUnbS/KQU6dpq
OEt5HQIA9woXlIfgr9oVqa1rirwS21LzRqf/ADlj5i1TS9DHmLUNBSZbTTprtLBY4oVjs/UWSVJV
29YkLTctyxVmB/KH80/zF/MjTfNX5jrZ6No2iOjWOiWcvruyxyeoE5KWX42A9Ry1SNgo7KvVD+c3
5amvo6yLpASPUtILm5jqP8uCKRfxxVhN7+b/AJE0H8yU1j9JOuh+YrNLPVJZba6hW2u7Iu1tOfVi
T4JEmaJuPQhK7VOKtaJqfldby00zyrJaeZ7LUNbjt9Ftr+N5P0RHHbC71D05LgB/TEKh7dV25NQH
iKBVPta0/wA96Nq0vl/yraOND1sW4sNQiMYi0d1lJ1BnV/ib1Ym9SLrWSo22xVR84QaX5b1D9FWd
pp+hW95pN/PpXmgwia4sbm2Zrm8Lcvj4ejIZYyDsytXqMVYtr3n38sm0nRPy+0DVJLnTJ7mO48xX
jJd3M6WkEgupfrB9NpmnvZaIar0ZiaUGKvRj+c/5cKKvqcsa7Vd7K+RRXbdmgAA9zirKND13R9d0
yHVNHu477T7jl6NzC3JGKMUYfNWUgjscVYB/zkL5W80+bfy9l8teXNO+vXl/cQmSVpoYI4I4JBKW
b1GDMWK8QFHuelCq870yH/nLzy35estC0rRNGms9MtYrS1eOSEyFIkCBiZbiNS1BViRucVT6X8t/
ze89/lR5g0n8wr+2j1/Unhm0WyjSARWZtm9QB5LdTUzElGPJ+K036jFWN+QvJv8Azk43llfy91P6
p5e8sxKbaTXC8M18to1eUNr6Ergkq1AzqCP5qimKso/K/wDKu/8Ay/8Azm1/6lp7Dyhq2mxDSb1P
jWN7cxBoJqfErn4mDN9qla1qMVe34qwT88/KWt+bvys13y/oiLLqd4sDW8TMqBzBcxzlObFVUsI6
AsaYqq/ktoWq6D+V3l7R9WszYajZW7R3VqWVir+q5rVCynlXlse+Ks2xV8s6b+V/59fll+YutXf5
e2Fpqug61IzA3UkKwiMszxLMjSwSq8PqEVTZvpoFUx89/kb53S30PznNJ/ibzrbaxDqfmMWwC8ra
PgUgs0bjWO3EVFWnJuRNO2KvVvz18ma551/LDVNA0Ph+kbk28kMczekriGdJShYjYkJty2r1piqL
/K3yxq2iflXo3l3VIxa6na2TW1wgZZAjksKhkJU9a7HFWA/84w+RfOXkO18weXvMmjtamW5F1aar
HJDLBOgURcAyOZB05KGUbE1odsVRHmXyjq8f/OUXlPzW1q8uiz6bcWa3qKWSG6jgufglYbJzST4C
32twN8VZj+dvk3V/Of5Ya15c0hkGo3iwNAshCo5guI5+BY/Z5enQHxxVf+S3lnWPLH5YaFoOswi3
1OxilS5hV1kALTyOKMhZTVWB64q8+/5xm/L7zn+X1x5j0HzDpLRw3UsdxZazFJDJbzLECnH4XMik
8uShl8a07qobzh+XH5jeTvzhn/Mz8vtNi1211aIxaxorTLBJWQKJOJcqCrvGkgIJIatV44qzDyvZ
/m/5m802Wvebo08p6FpfOS08tWVyLia6mkQoGvZo/gaNFaqoO/UbYqkP5zflT5w8y/mp5G806RDD
e6VolxbHUbaSVI2RIbxZ3cLJQMGTag326Yq9uxV4B54/Lf8AMTyr+cJ/M/8AL/Totci1GP0tZ0Rp
Ugf4kWNyrOV+FyiyVFSH6grirLvLdr+cXmnzRYa15qhTyf5e0tmmt/LtndC5ubyZlKL9cnipGYlD
V4bVPUdwqm/5h/l3q/nS4gt5dZj0/Q7cB1tord5Lh5zUMzu04gZAtOKvA3c1xV5ZqH/OLd5NqE8N
g2nR6eCOF7fQWks0tVHM/VrOxsvSWuw/0hjtXauKoTQfILeUNR80+V9R1h76+uEszpmrhbiKewWX
TL+OK4soy90ecfoGGrSoOIp6g2XFVf8ASX5j6WyaFF5w1C8vNSRI9IkW1jMf1qIma/gvZJxJPbGz
DcpKMOUVAvxg4qo+ZdBmXyDrsF5rU/mDVNWSZdL1+8FxHIkF1Lp0KQ2aVkjaK8Mqk/vV6gcWFcVX
3f8Azi15hiMspvtO1+aRjJPPcRC1vJnZuTu9zdQ6zV291p8sVZ35Y/JPU/Kuq2mraBriJJHRbmxu
7RRE0T0EiAWD2EPIL9hmhahA2xV6zirsVdirsVdirsVdirsVdirsVdirsVdirsVdirsVdirsVdir
sVdirsVdirsVdirsVdirzv8AObynpuo+XrjVkhvTr8Vu2n2H6O4mS5+uOsaWlzHIskEtu0zKXEql
VFTUb4q8eTyj+cF1Z65qeq2j695i8v8AG20fXI9QktWtJrZRNdmyt1igRllR1g2TdlapZTirN/yk
8oavfatNeefbi61PWIZbbXNMlARdNnjmgVLa4b0oLb1bu34NGfWFVopUDY4q9uxV2KuxV5T+f/mP
zjb6RpvljyOLhvNeuSvLC1oVWWO0sQJZn5uyKtZGiQ8jurMN+mKqnmT8wdX1X8hJfOPl4yW+pXFp
A05t4zLLan6wkOoFEIqWtl9Ygn+WuKpP/wA45+drvX7/AM3aYdSvNT0zSZbJ9Onv7uPUJeF0kvI/
WUjhLBjCG4MPgPw9jiqVfk95jl1L8x9Qi1fzRPLeLf6tFZaRJrRl9T0biRUjOlNAOCpArOric/ZB
477KpX+dvnn8ydA8y+d5tEu528v2emabbXMcMjLJYz3wmMN7BT7I9SD05KEV5jrTZV6f+eGr6lpv
lzSmh1K50bSbrVra28w6zZCk9rp8iyc5Fk4v6QMojQyfs1xVQ8oauX/KjXbzTNfv9dt7RdTGla3f
x+ncPHCremVl6zqjD4ZqDl4CmKse/wCcbtbbVrCS4vfMc2r6rJY2ss1nNrP6UKF1rLI1sYIDaNzP
Epzk8OW1Sq9sxV84/kj5016/17yxBb+Y9S8wT6mNTbzjp9031m309YGkFjIkpQNA0jIq+n6h5Bq0
G2Kpx+bHmB7X837LT7/zNPoOiDSrGeVU1r9EIDJe3STSrEYLhblxHGvw1ToBy32Ve7Yq8W/PvU/P
uk6zpEfle8uIz5tgPlyBVkZYLS/kuYpYbv4d1cwGdS43AA8MVTb/AJx/8weaPNWg6h5r16Wdfr8s
FpZ2ErH04hp9ukFzLGn7Jmu/VLfIYqxX8gPMk+q+YLl9X8zT3uqOLxY9Lm1n60TwumFTphgQwcI0
HFvWbbsK7KpT5y86ecLL/nIVdO0/WrlLVdY0W1OjJdckeyuraM3QXT2jIYEsWab1Bw8D1Cr6TxV4
H+dfmq+0v8xZbZPNGo6EYPLD3uhWVg3NbvV/rUiQxPbGOZZ+YFCpXp3HXFWS/m75g8yWn5LWeqyz
y6JrVw2k/pFoZzZtA9xNCLmP1wrmIDkyluJoOx6YqjPIupsfym1O+0zXJtV1CKK+f64L3/EDwXCR
ExpHKsNsZuKhHEXpg1bjv1xVif8Azjb5r1nWNT1qzv8AWrzWlgs7Kd55Lr6/a/WJTJ6rRyvFby27
NQf6My/DQ7+CrN/yw1nW7+Dzw1xO97PY+ZdTtdOjnckJFEkRihUn7KAt9GKvKvyV/MbX778y9N0i
/wBY1LULrUrC5k121vp42jhv4grvGll6Ub2XourxhanmN6DFV352+evzJ0DzN53m0W6uG8vWemad
b3KQyMsljcXwmMF5DT7I9SD05KH9sdabKvpPFXYq7FXYq7FXYq7FXYq7FXYq0nDiOFOPanTFW8Vd
irjShr0716UxVwpQU6dqdKYq7FXYq7FXYq7FVknoc4vU48+R9HlSvPia8a9+PLp2rirUH1fgfQ4c
Ob19OlOfM+p0/a515e+KqmKuxV2KuxV2KuxVwpTbpv08e+KuxVpeFW40rX4qeNB1+jFW8Vf/2Q==
									</xapGImg:image>
							</rdf:li>
						</rdf:Alt>
					</xap:Thumbnails>
				</rdf:Description>
				<rdf:Description  rdf:about="" xmlns:dc="http://purl.org/dc/elements/1.1/">
					<dc:format>image/svg+xml</dc:format>
				</rdf:Description>
			</rdf:RDF>
		</x:xmpmeta>
<?xpacket begin='﻿' id='W5M0MpCehiHzreSzNTczkc9d'?><x:xmpmeta xmlns:x='adobe:ns:meta/' x:xmptk='XMP toolkit 3.0-29, framework 1.6'>
<rdf:RDF xmlns:rdf='http://www.w3.org/1999/02/22-rdf-syntax-ns#' xmlns:iX='http://ns.adobe.com/iX/1.0/'>

 <rdf:Description rdf:about=''
  xmlns:pdf='http://ns.adobe.com/pdf/1.3/'>
 </rdf:Description>

 <rdf:Description rdf:about=''
  xmlns:tiff='http://ns.adobe.com/tiff/1.0/'>
 </rdf:Description>

 <rdf:Description rdf:about=''
  xmlns:xap='http://ns.adobe.com/xap/1.0/'
  xmlns:xapGImg='http://ns.adobe.com/xap/1.0/g/img/'>
  <xap:CreateDate>2022-12-18T20:41:25Z</xap:CreateDate>
  <xap:ModifyDate>2022-12-19T07:49:30Z</xap:ModifyDate>
  <xap:CreatorTool>Illustrator</xap:CreatorTool>
  <xap:Thumbnails>
   <rdf:Alt>
    <rdf:li rdf:parseType='Resource'>
     <xapGImg:format>JPEG</xapGImg:format>
     <xapGImg:width>256</xapGImg:width>
     <xapGImg:height>52</xapGImg:height>
     <xapGImg:image>/9j/4AAQSkZJRgABAgEASABIAAD/7QAsUGhvdG9zaG9wIDMuMAA4QklNA+0AAAAAABAASAAAAAEA&#xA;AQBIAAAAAQAB/+4ADkFkb2JlAGTAAAAAAf/bAIQABgQEBAUEBgUFBgkGBQYJCwgGBggLDAoKCwoK&#xA;DBAMDAwMDAwQDA4PEA8ODBMTFBQTExwbGxscHx8fHx8fHx8fHwEHBwcNDA0YEBAYGhURFRofHx8f&#xA;Hx8fHx8fHx8fHx8fHx8fHx8fHx8fHx8fHx8fHx8fHx8fHx8fHx8fHx8fHx8f/8AAEQgANAEAAwER&#xA;AAIRAQMRAf/EAaIAAAAHAQEBAQEAAAAAAAAAAAQFAwIGAQAHCAkKCwEAAgIDAQEBAQEAAAAAAAAA&#xA;AQACAwQFBgcICQoLEAACAQMDAgQCBgcDBAIGAnMBAgMRBAAFIRIxQVEGE2EicYEUMpGhBxWxQiPB&#xA;UtHhMxZi8CRygvElQzRTkqKyY3PCNUQnk6OzNhdUZHTD0uIIJoMJChgZhJRFRqS0VtNVKBry4/PE&#xA;1OT0ZXWFlaW1xdXl9WZ2hpamtsbW5vY3R1dnd4eXp7fH1+f3OEhYaHiImKi4yNjo+Ck5SVlpeYmZ&#xA;qbnJ2en5KjpKWmp6ipqqusra6voRAAICAQIDBQUEBQYECAMDbQEAAhEDBCESMUEFURNhIgZxgZEy&#xA;obHwFMHR4SNCFVJicvEzJDRDghaSUyWiY7LCB3PSNeJEgxdUkwgJChgZJjZFGidkdFU38qOzwygp&#xA;0+PzhJSktMTU5PRldYWVpbXF1eX1RlZmdoaWprbG1ub2R1dnd4eXp7fH1+f3OEhYaHiImKi4yNjo&#xA;+DlJWWl5iZmpucnZ6fkqOkpaanqKmqq6ytrq+v/aAAwDAQACEQMRAD8A9B/mD5j1XQdEgn0pLVr+&#xA;8vbawgk1BnS1je5kEavM0YLUqQop3IxVgv8AyvfWdEvX0Lzn5Sn0zzBQ/U5YrqzTTLuh+1FeXktq&#xA;q+JX4mUdRXbFUZ5YsdM8+TXU2veZm1u7h4tcaPoV5cQaRZh6hYPWtGj+tSCh5tJIf9RRtirIX/Jv&#xA;8s5G5SaHFI9AC8kk7saCgqzSEnbxxVLfM3kTyV5d0ubWbfVtR8p/V2QnUrO9u3hjZmCqZrWVp7Z4&#xA;+RHLnHSncdcVY5H/AM5A/om1g0zULJPNWvzH0tOn8sXFndwX534SCFZzcwf8WAxsq9iRirJvJHnX&#xA;z3f+ajofmzSbHS57jTW1aC0s7h7ie1jE6wLFdsQELycmKmPb4WxV6FiqE1i+On6Te34T1DaW8s4j&#xA;JoGMaF6V3pWmKsP/ACb/ADXsvzM8qy65BYtps1tcvaXVk8gm4uqrIGWQLHyVlkHVRvUe+Ks7xV2K&#xA;uxV2KrZfV9J/SKiXifTLAlQ1NqgEGlcVfP8A5V/5ytuNe8vpNZeR9Y1jXoSy39rpMLz2sf8AvtvW&#xA;USOvMdim2/Xuqyj8s/8AnIvy3508xP5XvNNu/L3mRQ3p2F7T940YLPGrURhIqgsVZBtir1rFXYq7&#xA;FXYq7FUj8z+dfLXlc6d+nr1bGPVLkWdpNID6frMpdVdwKICFPxNtiqeEAih3B6jFXhH/ADiF5j1L&#xA;VPI+rafcTSXFjpGotBpcshZuNu6K6wqzb8U6gduXhTFXu+KpL5zfzUnlbUW8pxwS+YvSppyXLcYv&#xA;UJA5MTt8KksAdidjtirA/wAm/wA39V8yXl35Q86aedF8+aSvK5tGUol1CKD14gajuOQUkH7Smhoq&#xA;r1bFXYq7FXYqgdc0PStd0i70fVrZbvTr2MxXNu9aMp9xQgg7qw3B3G+KvKLDTtc803On/l35rEz2&#xA;vl957nX/AKy456pZRTGPSJA6/wB7FMFZp+jc46P9rdVlEvntrDUm8vaH5elMmlTta3mnRoIzFbPb&#xA;Sy2V3AkQZDbTSxejy/YbYjbFWZaPc3t1pFjdX1v9UvZ7eKW6ta19KV0DPHX/ACWJGKsP1j8xdW0W&#xA;7nk1XRJrfRrOS9+sagA7h4ofQjslgAHxzXk9yI44/wDJbFUq1mwsvKGrad+YOm6a2ljVRHaeatEh&#xA;VDNcPcoRZhIoiyPdpeMkNUPxB2JNByCqf/lp5XvNL0yfWdbiI82+YGF5r0juJGV9xDaqy/CI7aMi&#xA;NVXbqd61xVmOKsd/Ma+Fh+X3ma+J4/VtKvZQduqW7kUrtWuKvLP+cN9MNp+Us10y76hqlxOrU3Kp&#xA;HFABWg2DRNir3XFXkEv/ADkCdY88yeT/AMvvL7eabm1JGo6m1yLOxhCGjt6vpTllB+HlQVP2eWKr&#xA;4fzp1hPz7j/LK80y3FrcWwkjvIZHaSOYWRu3BLBQ6fAyj4FPQ4q9cxVCaxfrp+kX1+xAWzt5Z2J6&#xA;ARIX36eGKvCf+cLNNMH5a6pfMtGvdVkCmnWOGCJRv/rs2KpN+athb6r/AM5XeSLbQ1B1W0W0udak&#xA;iptHBM85Eu2zfV1pUn7LKPDFXq35sfnZ5d/LtbSzlt5dW8w6jT9H6Ja/3sgZuCs5o3BWb4V+Elj0&#xA;BoaKsb/Mn86PP/kr8utO81al5Ys9Ov73UobQ6TLePdssEsE0xMjxxwCOUeiBQcx4+GKs68xebL9f&#xA;ypv/ADhpSrb3iaK+sWsUw9RVK231kRuBx5bDiaUxVgsf/OQ7X3kDy9qOhaM+r+dvMcUgs/LtuSQk&#xA;ltI0NxPKwqUgV0JWu5HcfEwVVPyF/OzzH581PXtB8z6VBpmt6Gw9VbYSIn940UkbxytIyvG60+0a&#xA;+1MVeN/85O/mZq3nD6n5Yh8r3un2Nrqsqadqt1yUX0sAa3ZYYzGq05SA1EjdRWlcVfQ3lPzz581P&#xA;QfMOs+aPLH+E7fTrcyadbyzieZzHFI80jsVjUKKJx+Ad+uKvC/yH/MBvIv5QrDpOmSa/5v8AMurX&#xA;TaPo1uCztHBDDG8svDkyxRlCem/yqwVem/kT+d/mnzt5i13yv5s0iDS9c0ZTI4tRIijhL6MkciSv&#xA;KQyMRuGocVZD+bP5y2fkifTtE02xbXPOGtMqaXo0bcKiRvTWSV6HipfZf5jXoASFXm2v/mN508qf&#xA;mn5Rn/Mzyxock17zt9J1bSGuPrNolwRDMrPK7LJw9Ycl403PE74q9H/OL8z7/wDL++8qXghS40bU&#xA;79rDVo2B9RUkVSksTg7NHRjxIIYbbbHFXn3n/wD5ym1jy95qT9F+Xvrnki3u30+61qUSr9ZuITSc&#xA;Wkqn0v3e9KhuVO2KvRfza/OSx8iNp+k2di+tebNadYtI0aJghYu/pq8rblVLnitB8R223IVYPr35&#xA;3/mr5C816BY/mFo2j/ofzA/GKbSZLj1YAGRJebTMyO0XqqWAUA9mxV79irC9Gpe/mz5kvOi6Vpun&#xA;aYo7mSV57yQ/LhLEB9OKvGvzE84fmhofnK7tYfMixLpV1M8C3MtpYTNp88UVwkkgmDWt1AP30asl&#xA;uZUePj1bFXsP5T+Z/MPmX8v4NcvXhu57v1H02bh9XMsQFEFzGnNY5FlDRvwqPh5DrTFXgN3+bX5o&#xA;arfS3ieYrWJNKkm/0TlBFG95bgj0I7CJkvp2ecolsru6yA82CkMoVe4+erbVrX8qbS91Kd7zVtFm&#xA;0rV7uSf0kaSWxvILqZGEKxx9EZVCgdsVei4q7FXmn/OSOqfo78lPM8wNHmgitVFaE/WbiOFh1H7L&#xA;nFV//OOWmjTvyV8rQ8eJlt5LltqE/WZ5JgfucYqqf85B+Z7zy3+UPmHULF2jvJIUs4JF2KG7lWBm&#xA;B7FUdiD44qkv/OLXky08vflPp16sYGoa/XULyWnxFWJWBK9eKxAEDxZvHFXn35Yapa+dP+csvNHm&#xA;G2YSWOmWk8dnKtCrCAQ2Csp7iQc3BxV9P4qwr869UOl/lL5tuweLHTLiBG6Ua4T0FI3G9ZNsVeb/&#xA;AJFeUPN17+RvlxdB8zN5a+tfXZrwx2cF3JJzu5FRleU/ARGg6Cu/amKvRfy6/KLy35InvdRgmudV&#xA;8w6mSdS13UJPVupqnkVrQBV5b0G57k0GKvE/yStR+YH/ADkJ5x876qPrCaDK0emRt8SxmR3t7U+H&#xA;wQQN/svi64qiv+czdeS7i8reSLZ1a9vbv6/Kld0ABtoCf9dppP8AgcVetfnRcW+g/kn5nSM8IItJ&#xA;ksIq+E6C1QdP+LBirBv+cQvJcWnfl6nme6TnqOsNJDaysByisYJnCxL3Aef1JD/N8PgMVSL/AJxS&#xA;I1nz5+ZXmtTWK9vQYWFKN9auLidum2wC/fiqt+dhOu/85Jflr5b+3FYelqMiVFN7hpZAfmlkK+2K&#xA;vWvzt1T9GflJ5tugeLHTLiBW3BDXKegpFCN6ybYq8z/5w68nR2nkWTzXdqZL7U5JLSwkff0rG3la&#xA;qR1+yHuWlZqdaDwxVK/+cZ661+cP5neaENYHuZIoW2IKXV3LIgBFAaJAMVY5Y6r5o1T/AJyu8y6r&#xA;pOhp5j1HQkuI7Swlu0sViitxHZeoskiyqaeofhpuWrirMU/KH81PzF/MbTPNv5ki00XR9FdJLDQr&#xA;SUXEhEcglEZZCyfEwHqPyqaUCgdFUv8A+cz55ro+SNCtD/pt7eXDw02IcejFHvXarS/hir1nUfyS&#xA;8lalpXlbSL5J5NK8qUay05HCW88oCj1LlQpaRqqT9oV5NWtcVeES6l5m1L/nLbWtR0zRI/MV/oUb&#xA;rZabNeR2SJHDDHb+oskquCQ0xfiFrVq9sVZXP+UX5rfmZ+YGmeYvzKjtNE0DRmD2mhWswuHYBxIY&#xA;yyF0/eFQJX5VIFFUdQq9Xb85fy1qfR1lbpQaepaQXN1HUf8AFkEUifjirCb383vIuhfmSmsjUXXQ&#xA;vMNpHZarNLbXUK213ZF3tp2MsSDhLHM0TcehCdqnFXaHqflZby10zytJa+Z7LUNbjt9Etr+N5P0Q&#xA;kduLvUOElwBJ6QhUPbqv7TUB4igVT3WdP886Jq03l7yrZuuh64LcafqERQRaO6ys2oNIrfEfVib1&#xA;IjvWWoOKqHnKHTPLV+NMsbLT9Egu9Jv59J80NAJp7C6ti9zdl+VX4ejIZYyDsytUbjFWMa759/LI&#xA;6Po3kDy/qkl3ps9zFP5hvWS7upktIJFupvrB9N5WmvZAE6dGY7UAxV6K35z/AJcKKyanLGtQC8ll&#xA;fIoqabs0AUfTirKND13R9d0yHVNHu477T7jl6NzC3JGKMUYfNWUgjscVYD/zkL5W80ebfy7n8t+X&#xA;NNN9e388LPK08MEcCQSLKWf1WUty48QFHuTtQqvOdKg/5y78teXbLQdJ0TRprPTLaK0tXSSEyFI1&#xA;CAkzXEaltqmopirIZPy7/OHz1+U/mLSPzB1C3g17VGhk0ewjWEQ2v1VxKFlktw3L1mHFvifiKEb1&#xA;GKsW8geTv+cnP8NL+Xuoi08v+WIuVvJrrNFNfLasSXhtvRlcHkr0VmQU/mFKYqyr8sPypvvy+/Oj&#xA;XDZWDHyjqulxrpd+oD+lJAYQ0ExG6s1GapHxeNajFXuGKsF/PHyprfmz8rNe8v6Igk1S8SA20TOs&#xA;Ycw3MUzJzYqo5LGRuaYq78j/AC/rHl38qvL+jazbGz1OzilS5tmZWKFp5HAqhZT8LA7HFWdYq+Wb&#xA;L8sPz6/LX8ydZv8A8vdPtNW0TXJXYG5kiWERs7SRrOjSwSK8PM7psfppiqO8+/kV53+qaR52uJB5&#xA;m88W+rw6l5git1AVrWPhwt7NG4ckgEdAuxbkT4DFXrX55eTNb86/lhq3l/Q2QahdehJDHM3prIIZ&#xA;0mMZY/ZJ4bV79adcVRP5T+WNW0H8rNF8u6pCLHU7S0eC4SJ1kCOXf4gyHiSeXLY4q8//AOcYvIPn&#xA;PyAvmPQPMmlNAs9wlxZ6nFJFLbTqimMhSrc1J2YckG1a0IpiqJ81eT9Yi/5yi8nebPqss2izWFxZ&#xA;teRqTHBcpbXVFmIrxDrIOFaVO3bFWbfnR5P1Xzj+WOu+XNJZF1G9jiNt6jcVZoLiOfgW7cxFxqdt&#xA;8Va/JPyxrHlf8r9C0HWbdbXU7GOZLmFXSQAtcSOCGjLKeSsD1xV5/wD840/l75z/AC9v/M2h+YdL&#xA;ZYbyaOey1uJ45IJ1h5JQ0cyKWD8lDIO9d6VVQ/nX8uPzF8p/nC/5neQNOj16HU4zFrGivKkDjkqI&#xA;/FnZaq5jVwRUhuq8cVZd5atvzi80+abDXPNUCeT/AC9pZeW38u2l0Li4u5XQopvJo6RmJA1QlBv1&#xA;XwVY/wDnh+U/nTzV+ZHkrzFoqRXGmaNND9ehaRIniEd0szyDnTmGTagNdvfFXuOKvAfPv5afmH5a&#xA;/N9fzS/L+xi1oXqCLWdEeVYHasYicozlQVcIrdSQ+/EjFWV+Xbf84vNfmfT9Z8026+TfLulO08Gg&#xA;Wl0tzdXkzKVX63NH8HpKrE8KCp6r3Cqc/mH+Xer+dLiC3l1mPT9DtwHW2it3kuHnNQzO7TiBkC04&#xA;q8DdzXFXlmpf84u3s+ozxWJ05bAEcb6/htJJZeSjmRbWdjZ+kK7f70E96rXFULoXkBvKOoeZfLGo&#xA;6w97fzpaPpmrKtxFPp4l02/jiuLFDJdMXi+rmEF5UoopzGwxVX/SP5kaU6aFF5xv7u91NETSHFrE&#xA;0X1pCZr+C9lm9Sa1Nmr8pPiFYqBaOuKobzPoEy+QdeivNcn17U9VjmGma/eevHJHb3E2nRLDZoTJ&#xA;G0V76oJ/er1A4sKnFVW9/wCcW/MUbSztf6dr88jGSe4uYha3k7s3J3e5uotZq7e60+WKs78sfknq&#xA;flXVbTVtA11EeOi3Fhd2q+i0T0EiKLB7CHkF+yzQtuBtir1nFXYq7FXAg9MVdirsVdirSsrKGUhl&#xA;YVVhuCD3GKt4q7FXYq7FXYq7FXYq7FXYq7FXYq7FXYq0rKwqpBFSKjfcGhH34q3irqj7uuKuxV2K&#xA;uxV53+c3lPTdS8v3GrJFenXord9OsBpvEvc/XGWNLS5jlWSGW3aZlLiVeKirbb4q8eHlD84byz1z&#xA;UdVtZNb8xeXuNto2vR6g9q1pNbKJ7s2VukMCssyOsP2NyrAllxVm35SeUdWvtZmu/PlzdalrMMlt&#xA;rmmNSNdNnimhVLa5b0oLYy3dvwMZ9YVWilVGxxV7firsVdiry38+7vUtQ0fTPI+j2kuoah5ouaXd&#xA;nbypbynTLLjPe8Z5SI4y44RAvt8ffpirHV1nzjqP/OOer6YIbmLzh5cUaLrNvbmtzxtJYhOY2Utz&#xA;eXT258lO5Pw9sVUfyb1vyM/5r6hpfk2ys7bSpNGedZ9LubpoJUt7qKOL63bXEEIW7CTfEQ7EVoSS&#xA;cVSv8v18mf8AKzdTbVpPKn17/E2r/Vo50b9P/Wf0hN9X4uz8Pt8eHw14++Kq/m6TzJpH5ueevN+j&#xA;mS6tNEsNKi13R03+sabd28/rSxg9ZbVoVlXpVeYrvuqmmtrat+R35ZfpcTHykI9FPmkQeoR9RGnn&#xA;j64j+IwfWfR9TFU48tL5CHknz6/kSK4j0GSK5ZXAK6a8/wBSIlOnKTXhUD1CBxLfZqMVSL/nG0+U&#xA;khthby+VzrsmlW6quioy6n6fFGuBfF2bk3MR8+IHx/Rir3jFXyn+WY8oP/yrseS1H/KwkvlPml7I&#xA;SgDSec/1v68QPq+44cefx8uNMVZN+Zq+Wj+cmofp6TyuluNM0rbzOju5T1rv1PqXF0Aan2+Vf2cV&#xA;e/6f9S+oW31Dh9R9JPqnpU9P0uI9PhTbjxpTFXiP5zaPqg87w6NpqyRWf5nWttompXFuKtFJp90s&#xA;ss7V8dOmnSn+TviqP/IAazrN3qnmHXYTFf6JbWnk6JXr6nPSl5X0hPf1bmXr/k4qxf8A5xrXyYDo&#xA;heTyo2unTx9TTT0ZdbEvp/vfrLO7At6XP1OKj7sVSfzW8UX5r6w9quky60vmzTGhgRJv8RtAI7Av&#xA;9UkU+isBXkG9Ucac9+mKvqbFXzd+Yo/K9vzI/MJfOqo+otYaQPLaxiRr83P1e4/3j9GsnP1PTr+z&#xA;WnLbFU1/NVdUH5Pfl2vmprQal+kdKGrtrYdrX1fqU3qfXQCrH4v7zfriqeWi+W5PyI1+HQrixjUw&#xA;3Ueo3HkuEyRJOwFWhhLh2ZYGjMgLgkVoRtiqVf8AOP8AcaEPNWs2uj2enGNNPtmm1Xy611HpchEr&#xA;qkc9rcisd5x3JDv8PWhrVVkWijWz+VvnsaEXGtHUvNP6NMNfV+sfXrr0vTpvz5U4++KsA/LHzB5B&#xA;g/NLyvYeUdOt4RqGnzwXdxbXN0t4GjtRPKurW0sCxtN68ThCJWb9o7FRiqA/MtvMeiw/mtr1oZLz&#xA;y7qt5NomtWC0P1aRtLtGsr6MHt6s5im3+yymh47KvqHFXYq7FXYq7FXYq7FXYq7FXYq7FXYq7FXY&#xA;q7FXYq7FXYq7FXYq40qK9e3zxVwpTbpv08e+KuxV2KuxV2KuxV2KuxV2KuxV2Kv/2Q==</xapGImg:image>
    </rdf:li>
   </rdf:Alt>
  </xap:Thumbnails>
 </rdf:Description>

 <rdf:Description rdf:about=''
  xmlns:dc='http://purl.org/dc/elements/1.1/'>
  <dc:format>image/svg+xml</dc:format>
 </rdf:Description>

</rdf:RDF>
</x:xmpmeta>
                                                                                                                                                                                                                                                                                                                                                                                                                                                                                                                                                                                                                                                                                                                                                                                                                                                                                                                                                                                                                                                                                                                                                                                                                                                                                                                                                                                                                                                                                                                                                                                                                                                                                                                                                                                                                                                                                                                                                                                                                                                                                                                                <?xpacket end='w'?>
			</metadata>
		
			<g id="_x34_09599fb-89aa-4ddd-9c19-604f11e9ffd0" i:knockout="Off" i:layer="yes" i:dimmedPercent="50" i:rgbTrio="#4F008000FFFF">
			<path d="M27.382,10.83L27.382,10.83L27.382,10.83c-0.078-0.202-0.116-0.482-0.116-0.84l0,0l0,0c0-0.356,0.122-1.416,0.366-3.179
				l0,0l0,0c0.244-1.756,0.366-3.166,0.366-4.232l0,0l0,0c0-0.25-0.019-0.592-0.054-1.026l0,0l0,0
				c0.631,0.036,1.027,0.184,1.188,0.446l0,0l0,0c0.083,0.155,0.137,0.301,0.16,0.438l0,0l0,0c0.024,0.137,0.036,0.354,0.036,0.652
				l0,0l0,0c0,0.291-0.134,1.401-0.402,3.33l0,0l0,0c-0.273,1.929-0.413,3.304-0.419,4.125l0,0l0,0
				c0.041-0.012,0.116-0.018,0.223-0.018l0,0l0,0c1.804,0,3.146-0.125,4.027-0.375l0,0l0,0c-0.06,0.481-0.224,0.856-0.491,1.125l0,0
				l0,0c-0.273,0.268-0.613,0.4-1.018,0.4l0,0l0,0c-0.119,0-0.479-0.025-1.081-0.08l0,0l0,0c-0.606-0.054-1.193-0.08-1.759-0.08l0,0
				l0,0c-0.565,0-1.134,0.055-1.705,0.16l0,0l0,0C26.816,11.309,27.042,11.026,27.382,10.83z M35.605,6.687L35.605,6.687
				L35.605,6.687c-0.238,0.417-0.423,0.846-0.554,1.286l0,0l0,0c-0.131,0.435-0.197,0.854-0.197,1.259l0,0l0,0
				c0,0.399,0.09,0.738,0.269,1.018l0,0l0,0c0.179,0.28,0.435,0.42,0.768,0.42l0,0l0,0c0.471,0,0.908-0.256,1.313-0.768l0,0l0,0
				c0.411-0.518,0.727-1.14,0.946-1.866l0,0l0,0c0.221-0.732,0.331-1.408,0.331-2.027l0,0l0,0c0-0.618-0.024-1.128-0.072-1.526l0,0
				l0,0c0.197-0.018,0.322-0.026,0.375-0.026l0,0l0,0c0.709,0,1.063,0.362,1.063,1.089l0,0l0,0c0,0.154-0.102,0.798-0.304,1.929l0,0
				l0,0c-0.196,1.131-0.295,2.036-0.295,2.714l0,0l0,0c0,0.679,0.128,1.279,0.384,1.804l0,0l0,0
				c-0.523-0.106-0.904-0.339-1.143-0.696l0,0l0,0c-0.238-0.351-0.357-0.859-0.357-1.526l0,0l0,0c0-0.119,0.018-0.346,0.054-0.679
				l0,0l0,0c-0.227,0.792-0.622,1.43-1.188,1.91l0,0l0,0c-0.571,0.488-1.128,0.732-1.67,0.732l0,0l0,0
				c-0.548,0-0.988-0.208-1.321-0.625l0,0l0,0c-0.333-0.41-0.5-0.979-0.5-1.705l0,0l0,0c0-0.732,0.137-1.446,0.41-2.144l0,0l0,0
				c0.269-0.696,0.676-1.297,1.224-1.803l0,0l0,0c0.542-0.513,1.152-0.769,1.83-0.769l0,0l0,0c0.292,0,0.613,0.06,0.965,0.179l0,0
				l0,0c-0.494,0.125-0.946,0.354-1.357,0.688l0,0l0,0C36.174,5.886,35.849,6.265,35.605,6.687z M48.186,2.892L48.186,2.892
				l0.009,0.152l0,0c0,0.315-0.118,1.352-0.356,3.107l0,0l0,0c-0.238,1.75-0.357,3.214-0.357,4.393l0,0l0,0
				c0,0.524,0.026,0.932,0.08,1.224l0,0l0,0c-0.202,0.019-0.313,0.026-0.33,0.026l0,0l0,0c-0.375,0-0.655-0.086-0.84-0.259l0,0l0,0
				c-0.178-0.173-0.268-0.452-0.268-0.839l0,0l0,0c0-0.389,0.14-1.572,0.42-3.554l0,0l0,0c0.273-1.977,0.411-3.388,0.411-4.232l0,0
				l0,0c0-0.846-0.057-1.399-0.17-1.661l0,0l0,0c0.268,0.036,0.515,0.14,0.741,0.313l0,0l0,0c0.231,0.167,0.404,0.393,0.518,0.679
				l0,0l0,0c0.637-0.339,1.346-0.509,2.125-0.509l0,0l0,0c0.773,0,1.384,0.238,1.83,0.714l0,0l0,0
				c0.447,0.482,0.67,1.071,0.67,1.769l0,0l0,0c0,0.893-0.324,1.696-0.973,2.41l0,0l0,0c-0.649,0.709-1.524,1.063-2.626,1.063l0,0
				l0,0c-0.25,0-0.479-0.015-0.688-0.044l0,0l-0.035-0.402l0,0c0.56,0,1.048-0.083,1.464-0.25l0,0l0,0
				c0.417-0.166,0.732-0.387,0.947-0.66l0,0l0,0c0.422-0.536,0.634-1.161,0.634-1.875l0,0l0,0c0-0.519-0.164-0.95-0.49-1.295l0,0
				l0,0c-0.327-0.346-0.804-0.519-1.429-0.519l0,0l0,0C49.097,2.642,48.668,2.726,48.186,2.892z M55.437,6.687L55.437,6.687
				L55.437,6.687c-0.243,0.417-0.432,0.846-0.563,1.286l0,0l0,0c-0.125,0.435-0.188,0.854-0.188,1.259l0,0l0,0
				c0,0.399,0.089,0.738,0.268,1.018l0,0l0,0c0.179,0.28,0.435,0.42,0.768,0.42l0,0l0,0c0.465,0,0.902-0.256,1.313-0.768l0,0l0,0
				c0.405-0.518,0.718-1.14,0.938-1.866l0,0l0,0c0.228-0.732,0.341-1.408,0.341-2.027l0,0l0,0c0-0.618-0.027-1.128-0.081-1.526l0,0
				l0,0c0.202-0.018,0.327-0.026,0.375-0.026l0,0l0,0c0.709,0,1.063,0.362,1.063,1.089l0,0l0,0c0,0.154-0.098,0.798-0.294,1.929l0,0
				l0,0c-0.203,1.131-0.304,2.036-0.304,2.714l0,0l0,0c0,0.679,0.128,1.279,0.384,1.804l0,0l0,0
				c-0.523-0.106-0.905-0.339-1.143-0.696l0,0l0,0c-0.238-0.351-0.357-0.859-0.357-1.526l0,0l0,0c0-0.119,0.018-0.346,0.054-0.679
				l0,0l0,0c-0.227,0.792-0.622,1.43-1.188,1.91l0,0l0,0c-0.565,0.488-1.122,0.732-1.67,0.732l0,0l0,0
				c-0.548,0-0.988-0.208-1.321-0.625l0,0l0,0c-0.334-0.41-0.5-0.979-0.5-1.705l0,0l0,0c0-0.732,0.137-1.446,0.41-2.144l0,0l0,0
				c0.269-0.696,0.676-1.297,1.224-1.803l0,0l0,0c0.548-0.513,1.158-0.769,1.83-0.769l0,0l0,0c0.292,0,0.613,0.06,0.965,0.179l0,0
				l0,0c-0.494,0.125-0.942,0.354-1.349,0.688l0,0l0,0C55.999,5.886,55.674,6.265,55.437,6.687z M67.392,6.143L67.392,6.143
				L67.392,6.143c0,0.381-0.08,1.057-0.24,2.026l0,0l0,0c-0.16,0.971-0.24,1.679-0.24,2.125l0,0l0,0c0,0.44,0.053,0.759,0.16,0.955
				l0,0l0,0c0.106,0.197,0.292,0.363,0.554,0.5l0,0l0,0c-0.113,0.013-0.268,0.019-0.464,0.019l0,0l0,0
				c-0.566,0-0.968-0.106-1.206-0.32l0,0l0,0c-0.238-0.215-0.357-0.597-0.357-1.145l0,0l0,0c0-0.31,0.084-0.932,0.25-1.866l0,0l0,0
				c0.167-0.94,0.25-1.631,0.25-2.071l0,0l0,0c0-0.548-0.166-0.821-0.5-0.821l0,0l0,0c-0.534,0-1.089,0.471-1.659,1.411l0,0l0,0
				c-0.571,0.94-0.857,2.074-0.857,3.401l0,0l0,0c0,0.523,0.027,0.932,0.08,1.224l0,0l0,0c-0.22,0.018-0.352,0.026-0.394,0.026l0,0
				l0,0c-0.731,0-1.099-0.36-1.099-1.08l0,0l0,0c0-0.167,0.09-0.807,0.27-1.92l0,0l0,0c0.173-1.119,0.259-2.009,0.259-2.67l0,0l0,0
				c0-0.666-0.071-1.276-0.215-1.83l0,0l0,0c0.493,0.19,0.84,0.461,1.035,0.813l0,0l0,0c0.196,0.357,0.296,0.762,0.296,1.214l0,0
				l0,0c0,0.453-0.052,0.979-0.152,1.581l0,0l0,0c0.273-0.94,0.706-1.732,1.295-2.375l0,0l0,0c0.584-0.649,1.131-0.974,1.643-0.974
				l0,0l0,0C66.96,4.365,67.392,4.958,67.392,6.143z M73.383,4.731L73.383,4.731L73.383,4.731c0,0.345-0.064,0.586-0.196,0.724l0,0
				l0,0c-0.137,0.131-0.332,0.196-0.589,0.196l0,0h-0.901l0,0c-0.035,0.22-0.122,0.738-0.26,1.554l0,0l0,0
				c-0.284,1.547-0.429,2.717-0.429,3.509l0,0l0,0c0,0.792,0.061,1.318,0.179,1.58l0,0l0,0c-0.477-0.179-0.814-0.443-1.018-0.795
				l0,0l0,0c-0.196-0.356-0.295-0.788-0.295-1.294l0,0l0,0c0-0.512,0.03-0.994,0.089-1.446l0,0l0,0
				c0.066-0.453,0.155-0.982,0.27-1.59l0,0l0,0c0.118-0.613,0.201-1.102,0.25-1.464l0,0l0,0c-0.478,0.065-0.943,0.199-1.402,0.401
				l0,0l0,0c-0.012-0.137-0.019-0.259-0.019-0.366l0,0l0,0c0-0.398,0.132-0.667,0.394-0.804l0,0l0,0
				c0.269-0.137,0.652-0.205,1.152-0.205l0,0l0,0c0.06-0.619,0.089-1.08,0.089-1.384l0,0l0,0c0-0.304-0.003-0.548-0.01-0.732l0,0
				l0,0c0-0.185,0-0.321,0-0.411l0,0l0,0c0.382,0.06,0.677,0.229,0.885,0.51l0,0l0,0c0.209,0.273,0.313,0.654,0.313,1.143l0,0l0,0
				c0,0.25-0.021,0.554-0.063,0.911l0,0l0,0c0.727,0,1.237-0.122,1.536-0.366l0,0l0,0C73.374,4.52,73.383,4.63,73.383,4.731z
				 M75.731,7.714L75.731,7.714c0.272-0.94,0.695-1.732,1.268-2.375l0,0l0,0c0.571-0.649,1.107-0.974,1.607-0.974l0,0l0,0
				c0.5,0,0.854,0.152,1.063,0.455l0,0l0,0c0.208,0.304,0.313,0.718,0.313,1.241l0,0l0,0c0,0.519-0.08,1.247-0.241,2.188l0,0l0,0
				c-0.16,0.947-0.241,1.635-0.241,2.063l0,0l0,0c0,0.429,0.054,0.74,0.161,0.938l0,0l0,0c0.106,0.197,0.289,0.363,0.545,0.5l0,0
				l0,0c-0.107,0.013-0.259,0.02-0.456,0.02l0,0l0,0c-0.535,0-0.932-0.11-1.188-0.331l0,0l0,0c-0.25-0.221-0.375-0.599-0.375-1.135
				l0,0l0,0c0-0.31,0.085-0.932,0.25-1.866l0,0l0,0c0.168-0.94,0.25-1.631,0.25-2.071l0,0l0,0c0-0.548-0.192-0.821-0.579-0.821l0,0
				l0,0c-0.228,0-0.478,0.119-0.75,0.357l0,0l0,0c-0.273,0.231-0.539,0.551-0.796,0.955l0,0l0,0c-0.25,0.405-0.461,0.92-0.634,1.545
				l0,0l0,0c-0.173,0.619-0.259,1.229-0.259,1.831l0,0l0,0c0,0.606,0.026,1.057,0.08,1.349l0,0l0,0
				c-0.202,0.018-0.315,0.026-0.339,0.026l0,0l0,0c-0.394,0-0.683-0.083-0.866-0.25l0,0l0,0c-0.189-0.166-0.286-0.43-0.286-0.785
				l0,0l0,0c0-0.353,0.075-1.033,0.225-2.045l0,0l0,0c0.439-3.102,0.66-5.456,0.66-7.063l0,0l0,0c0-0.727-0.048-1.215-0.144-1.465
				l0,0l0,0c0.482,0.179,0.821,0.438,1.019,0.777l0,0l0,0c0.196,0.345,0.294,0.815,0.294,1.41l0,0l0,0
				c0,0.417-0.082,1.292-0.25,2.625l0,0l0,0C75.901,6.145,75.791,7.112,75.731,7.714L75.731,7.714z M85.188,5.018L85.188,5.018
				L85.188,5.018c-0.5,0-0.924,0.285-1.27,0.856l0,0l0,0c-0.351,0.578-0.583,1.253-0.696,2.027l0,0h0.35l0,0
				c0.439,0,0.824-0.063,1.15-0.188l0,0l0,0c0.321-0.125,0.571-0.286,0.75-0.482l0,0l0,0c0.334-0.387,0.5-0.821,0.5-1.304l0,0l0,0
				c0-0.273-0.064-0.494-0.195-0.66l0,0l0,0C85.646,5.101,85.449,5.018,85.188,5.018z M86.946,10.08L86.946,10.08
				c-0.381,0.625-0.801,1.063-1.26,1.313l0,0l0,0c-0.459,0.25-0.99,0.375-1.599,0.375l0,0l0,0c-0.602,0-1.128-0.269-1.58-0.804l0,0
				l0,0c-0.453-0.53-0.679-1.28-0.679-2.25l0,0l0,0c0-1.102,0.298-2.084,0.893-2.946l0,0l0,0c0.292-0.417,0.674-0.757,1.144-1.019
				l0,0l0,0c0.471-0.256,0.987-0.384,1.554-0.384l0,0l0,0c1.25,0,1.875,0.604,1.875,1.813l0,0l0,0c0,0.727-0.279,1.295-0.839,1.705
				l0,0l0,0C85.89,8.294,85.237,8.499,84.5,8.499l0,0l0,0c-0.494,0-0.938-0.044-1.331-0.134l0,0l0,0
				c-0.006,0.084-0.009,0.212-0.009,0.384l0,0l0,0c0,1.477,0.438,2.215,1.313,2.215l0,0l0,0c0.821,0,1.491-0.408,2.01-1.224l0,0l0,0
				C86.791,9.782,86.946,9.896,86.946,10.08L86.946,10.08z M86.696,3.428L86.696,3.428L86.696,3.428
				c-0.006,0.089-0.051,0.176-0.135,0.259l0,0l0,0c-0.077,0.077-0.166,0.128-0.269,0.152l0,0l0,0
				c-0.297-0.375-0.682-0.744-1.151-1.107l0,0l0,0c-0.471-0.369-0.948-0.628-1.438-0.777l0,0l0,0
				c0.018-0.435,0.22-0.776,0.607-1.026l0,0l0,0c0.439,0.173,0.896,0.518,1.365,1.036l0,0l0,0
				C86.148,2.476,86.487,2.964,86.696,3.428z M90.384,7.518L90.384,7.518c0.298-1.084,0.658-1.882,1.08-2.394l0,0l0,0
				c0.423-0.512,0.815-0.768,1.179-0.768l0,0l0,0c0.363,0,0.635,0.134,0.813,0.401l0,0l0,0c0.185,0.274,0.277,0.619,0.277,1.036l0,0
				l0,0c0,0.417-0.107,0.776-0.322,1.08l0,0l0,0c-0.22,0.304-0.538,0.456-0.955,0.456l0,0l0,0c-0.131,0-0.235-0.01-0.313-0.027l0,0
				l0,0c0.286-0.41,0.43-0.827,0.43-1.25l0,0l0,0c0-0.298-0.122-0.446-0.366-0.446l0,0l0,0c-0.19,0-0.393,0.11-0.607,0.33l0,0l0,0
				c-0.22,0.227-0.428,0.539-0.625,0.938l0,0l0,0c-0.201,0.405-0.368,0.926-0.5,1.563l0,0l0,0c-0.137,0.644-0.205,1.337-0.205,2.081
				l0,0l0,0c0,0.083,0.021,0.438,0.063,1.063l0,0l0,0c-0.214,0.018-0.339,0.026-0.375,0.026l0,0l0,0c-0.732,0-1.099-0.36-1.099-1.08
				l0,0l0,0c0-0.167,0.09-0.807,0.269-1.92l0,0l0,0c0.173-1.119,0.259-2.009,0.259-2.67l0,0l0,0c0-0.666-0.07-1.276-0.215-1.83l0,0
				l0,0c0.494,0.19,0.84,0.461,1.036,0.813l0,0l0,0C90.401,5.276,90.5,5.689,90.5,6.16l0,0l0,0C90.5,6.63,90.461,7.083,90.384,7.518
				L90.384,7.518z M97.75,5.018L97.75,5.018L97.75,5.018c-0.5,0-0.926,0.285-1.276,0.856l0,0l0,0
				c-0.346,0.578-0.574,1.253-0.688,2.027l0,0h0.348l0,0c0.44,0,0.824-0.063,1.152-0.188l0,0l0,0
				c0.321-0.125,0.571-0.286,0.75-0.482l0,0l0,0c0.333-0.387,0.5-0.821,0.5-1.304l0,0l0,0c0-0.273-0.065-0.494-0.196-0.66l0,0l0,0
				C98.208,5.101,98.012,5.018,97.75,5.018z M99.509,10.08L99.509,10.08c-0.381,0.625-0.801,1.063-1.259,1.313l0,0l0,0
				c-0.458,0.25-0.991,0.375-1.599,0.375l0,0l0,0c-0.602,0-1.128-0.269-1.58-0.804l0,0l0,0c-0.452-0.53-0.68-1.28-0.68-2.25l0,0l0,0
				c0-1.102,0.299-2.084,0.895-2.946l0,0l0,0c0.291-0.417,0.672-0.757,1.143-1.019l0,0l0,0c0.471-0.256,0.988-0.384,1.555-0.384l0,0
				l0,0c1.25,0,1.875,0.604,1.875,1.813l0,0l0,0c0,0.727-0.28,1.295-0.841,1.705l0,0l0,0c-0.565,0.411-1.217,0.616-1.954,0.616l0,0
				l0,0c-0.494,0-0.938-0.044-1.33-0.134l0,0l0,0c-0.007,0.084-0.01,0.212-0.01,0.384l0,0l0,0c0,1.477,0.438,2.215,1.313,2.215l0,0
				l0,0c0.821,0,1.491-0.408,2.009-1.224l0,0l0,0C99.354,9.782,99.509,9.896,99.509,10.08L99.509,10.08z"/>
		</g>
		
			<g id="_x39_7221fff-9f5f-45e5-b2fa-fe4d6ef25df3" i:knockout="Off" i:layer="yes" i:dimmedPercent="50" i:rgbTrio="#4F00FFFF4F00">
			<path d="M9.878,8.411V8.394C9.689,8.061,9.375,7.817,9.005,7.719H8.97C8.769,7.657,8.561,7.618,8.35,7.603
				c-0.568-0.076-1.113-0.278-1.594-0.59C6.667,6.959,6.553,6.988,6.5,7.076C6.451,7.157,6.472,7.263,6.547,7.319
				c0.159,0.103,0.325,0.195,0.496,0.275c0,0.025-0.022,0.05-0.029,0.077c-0.227,0.798,0.232,1.63,1.029,1.862
				c0.144,0.041,0.292,0.063,0.441,0.063C8.938,9.599,9.368,9.39,9.647,9.031C9.669,9.279,9.653,9.53,9.603,9.774
				C9.564,9.87,9.61,9.979,9.705,10.017c0.005,0.003,0.01,0.005,0.015,0.006c0.02,0.004,0.04,0.004,0.06,0
				c0.08,0,0.15-0.052,0.176-0.126c0.08-0.333,0.1-0.678,0.058-1.018C9.999,8.716,9.953,8.557,9.878,8.411z M8.77,8.041
				c0.009,0.043,0.009,0.087,0,0.129C8.721,8.344,8.541,8.444,8.367,8.396C8.194,8.348,8.093,8.168,8.142,7.994
				c0.006-0.015,0.013-0.028,0.022-0.042L8.312,7.97c0.156,0.011,0.311,0.036,0.462,0.074L8.77,8.041z M9.002,9.096
				C8.735,9.232,8.427,9.261,8.14,9.175C7.536,9.001,7.188,8.372,7.36,7.769v-0.03c0.138,0.053,0.28,0.099,0.422,0.136V7.89
				C7.666,8.256,7.868,8.646,8.233,8.762C8.6,8.878,8.989,8.676,9.105,8.311c0.014-0.042,0.023-0.086,0.028-0.13
				C9.281,8.256,9.408,8.369,9.5,8.508c-0.085,0.251-0.261,0.46-0.493,0.588H9.002z M15.723,7.667c0-0.027-0.02-0.05-0.03-0.077
				c0.172-0.08,0.337-0.173,0.496-0.275c0.082-0.062,0.098-0.179,0.036-0.261c-0.058-0.075-0.163-0.095-0.244-0.047
				C15.5,7.32,14.956,7.522,14.386,7.598c-0.212,0.016-0.421,0.055-0.625,0.116h-0.029c-0.373,0.099-0.689,0.344-0.878,0.68v0.013
				c-0.077,0.15-0.123,0.314-0.134,0.483c-0.042,0.34-0.022,0.684,0.057,1.017c0.025,0.075,0.097,0.126,0.176,0.126
				c0.104,0.002,0.188-0.079,0.189-0.184c0.001-0.021-0.003-0.043-0.011-0.063c-0.052-0.245-0.067-0.495-0.047-0.744
				c0.279,0.358,0.709,0.567,1.163,0.565c0.149,0,0.298-0.021,0.441-0.063c0.802-0.229,1.267-1.064,1.037-1.867
				C15.725,7.674,15.724,7.67,15.723,7.667z M14.408,7.97l0.148-0.018c0.009,0.014,0.017,0.027,0.022,0.042
				c0.048,0.171-0.051,0.348-0.221,0.396c-0.166,0.052-0.342-0.041-0.394-0.207c-0.015-0.046-0.018-0.095-0.011-0.143
				C14.102,8.004,14.255,7.979,14.408,7.97L14.408,7.97L14.408,7.97z M14.589,9.175c-0.287,0.086-0.596,0.058-0.862-0.079
				c-0.233-0.128-0.411-0.339-0.496-0.591c0.092-0.138,0.219-0.25,0.367-0.324c0.004,0.03,0.01,0.062,0.018,0.092
				c0.088,0.294,0.359,0.496,0.667,0.495c0.383-0.008,0.688-0.325,0.68-0.708c-0.002-0.055-0.009-0.109-0.022-0.162V7.883
				c0.143-0.038,0.283-0.083,0.421-0.137v0.03C15.528,8.375,15.186,8.997,14.589,9.175z"/>
			<path d="M10.455,8.118C10.416,7.56,9.959,7.206,9.179,7.146c-0.413-0.053-0.81-0.197-1.161-0.418
				C7.933,6.67,7.816,6.693,7.76,6.779C7.704,6.865,7.727,6.98,7.812,7.037c0.405,0.258,0.863,0.421,1.34,0.479
				c0.334,0.024,0.899,0.142,0.935,0.628c0.007,0.098,0.088,0.173,0.186,0.173h0.013C10.386,8.309,10.463,8.22,10.455,8.118z
				 M13.674,7.516c0.477-0.058,0.935-0.221,1.34-0.479c0.085-0.057,0.108-0.172,0.052-0.258c-0.056-0.086-0.172-0.109-0.258-0.052
				c-0.353,0.225-0.749,0.37-1.163,0.426c-0.771,0.06-1.24,0.414-1.277,0.973c-0.007,0.103,0.07,0.191,0.173,0.198h0.001h0.013
				c0.098,0,0.179-0.076,0.186-0.174C12.774,7.649,13.35,7.543,13.674,7.516z M7.557,6.224c0.063,0.081,0.18,0.097,0.261,0.033
				c0.081-0.063,0.097-0.179,0.033-0.261C7.849,5.993,7.847,5.991,7.844,5.988L7.053,5.016C6.99,4.935,6.873,4.92,6.792,4.982
				s-0.096,0.18-0.033,0.261c0.002,0.003,0.004,0.006,0.007,0.009L7.557,6.224z M8.39,5.686c0.027,0.071,0.097,0.119,0.174,0.119
				C8.667,5.804,8.749,5.72,8.748,5.617c0-0.021-0.003-0.041-0.01-0.061l-0.35-0.913C8.351,4.548,8.242,4.5,8.146,4.537
				S8.003,4.682,8.04,4.778L8.39,5.686z M9.382,5.713c0.097,0,0.178-0.074,0.186-0.171L9.63,4.753c0.008-0.103-0.067-0.192-0.17-0.2
				c-0.001,0-0.001,0-0.001,0C9.357,4.542,9.268,4.616,9.258,4.717c0,0.002,0,0.005,0,0.007L9.195,5.515
				c-0.007,0.103,0.071,0.19,0.174,0.198C9.373,5.713,9.377,5.713,9.382,5.713z"/>
			<path d="M22.602,12.113c-0.967-0.309-3.243-0.28-5.094-0.196c1.24-1.563,1.24-3.077,1.02-3.789
				c-0.169-0.533-0.429-1.877-0.097-2.4c0.062-0.106,0.17-0.178,0.293-0.19c0.437-0.058,0.516-0.511,0.577-0.873
				c0.018-0.13,0.046-0.258,0.087-0.382c0.075-0.134,0.179-0.25,0.303-0.34c0.348-0.277,0.619-0.639,0.788-1.049
				c0.395-0.97-0.134-1.448-0.156-1.469c-0.021-0.016-0.044-0.026-0.069-0.032H20.22c-0.406-0.105-0.837-0.04-1.193,0.182
				c-0.168,0.082-0.377,0.181-0.684,0.31c-0.663,0.334-1.465,0.201-1.984-0.327c-1.116-1.071-1.902-1.381-4.979-1.381
				c-3.077,0-3.854,0.312-4.96,1.381C5.9,2.086,5.099,2.219,4.437,1.885c-0.231-0.097-0.46-0.2-0.685-0.31
				C3.394,1.353,2.963,1.287,2.557,1.393H2.522C2.497,1.398,2.474,1.409,2.453,1.425C2.431,1.445,1.902,1.921,2.297,2.894
				c0.17,0.41,0.441,0.771,0.788,1.049c0.125,0.09,0.228,0.206,0.303,0.34c0.026,0.129,0.041,0.26,0.042,0.392
				C3.493,5.039,3.57,5.49,4.008,5.548c0.122,0.014,0.231,0.084,0.293,0.19c0.332,0.523,0.071,1.867-0.097,2.4
				c-0.226,0.712-0.216,2.232,1.019,3.79c-1.85-0.085-4.126-0.111-5.094,0.195c-0.098,0.031-0.151,0.137-0.12,0.234
				c0.032,0.098,0.137,0.151,0.234,0.119c1.015-0.321,3.72-0.247,5.253-0.162h0.062l0.161,0.171
				c-1.904,0.026-3.196,0.157-3.844,0.392c-0.098,0.032-0.15,0.138-0.118,0.235c0.032,0.097,0.138,0.149,0.235,0.118
				c0.003-0.001,0.006-0.002,0.01-0.005c0.64-0.229,2.058-0.358,4.106-0.374c0.087,0.075,0.176,0.147,0.266,0.219
				c-1.604,0.09-4.216,0.3-5.208,0.744c-0.091,0.048-0.125,0.16-0.077,0.252c0.043,0.081,0.14,0.117,0.226,0.088
				C2.349,13.7,5.328,13.5,6.826,13.423l0.248,0.179l0.024,0.018c-1.56,0.151-2.626,0.348-3.172,0.586
				c-0.091,0.048-0.125,0.16-0.076,0.251c0.043,0.081,0.139,0.119,0.226,0.089c0.513-0.226,1.599-0.42,3.154-0.564
				c-0.008,0.458,0.049,0.916,0.168,1.357c0.404,1.07,0.957,1.333,1.602,1.388c0.093,0.176,0.221,0.327,0.377,0.449
				c-0.347,0.313-0.632,0.689-0.841,1.108c-0.037,0.096,0.011,0.203,0.106,0.24c0.095,0.037,0.204-0.012,0.24-0.106
				c0.067-0.174,0.269-0.496,0.816-1.039c0.158,0.081,0.324,0.146,0.496,0.193c-0.12,0.27-0.197,0.557-0.229,0.851
				c-0.006,0.104,0.073,0.19,0.176,0.196l0,0c0.1,0,0.181-0.077,0.187-0.177c0.032-0.271,0.108-0.537,0.226-0.785
				c0.537,0.089,1.085,0.089,1.622,0c0.116,0.248,0.192,0.514,0.226,0.785c0.005,0.1,0.087,0.177,0.186,0.177
				c0.103-0.006,0.182-0.093,0.177-0.195c0,0,0-0.001-0.001-0.001c-0.027-0.294-0.103-0.582-0.221-0.853
				c0.172-0.048,0.338-0.113,0.496-0.193c0.549,0.543,0.744,0.865,0.816,1.039c0.037,0.096,0.145,0.144,0.24,0.106
				c0.095-0.038,0.144-0.146,0.106-0.241c-0.209-0.418-0.494-0.794-0.841-1.108c0.156-0.121,0.285-0.273,0.377-0.448
				c0.646-0.055,1.198-0.314,1.6-1.387c0.116-0.439,0.171-0.896,0.161-1.352c1.556,0.146,2.644,0.34,3.154,0.564
				c0.091,0.049,0.204,0.015,0.252-0.076c0.049-0.091,0.014-0.203-0.077-0.252c-0.008-0.005-0.017-0.008-0.025-0.012
				c-0.551-0.248-1.637-0.438-3.224-0.59l0.198-0.139l0.077-0.056c1.487,0.074,4.513,0.275,5.56,0.744
				c0.097,0.033,0.203-0.018,0.236-0.114c0.03-0.087-0.007-0.183-0.088-0.226c-1.007-0.441-3.623-0.65-5.225-0.744
				c0.094-0.071,0.186-0.144,0.275-0.218c2.053,0.012,3.472,0.141,4.113,0.374c0.098,0.032,0.203-0.021,0.235-0.118
				c0.031-0.094-0.017-0.195-0.108-0.231c-0.645-0.232-1.937-0.363-3.844-0.392l0.161-0.172h0.062
				c1.525-0.076,4.238-0.158,5.253,0.164c0.105,0.032,0.217-0.027,0.249-0.133C22.764,12.254,22.707,12.146,22.602,12.113z
				 M12.187,16.803c-0.052-0.089-0.165-0.119-0.254-0.067c-0.09,0.052-0.12,0.165-0.068,0.254c0.039,0.066,0.097,0.174,0.158,0.298
				c-0.429,0.063-0.865,0.063-1.294,0c0.087-0.176,0.156-0.295,0.158-0.298c0.052-0.089,0.021-0.202-0.068-0.254
				c-0.089-0.052-0.202-0.021-0.254,0.067c0,0.016-0.104,0.182-0.216,0.411c-0.339-0.072-0.647-0.245-0.888-0.495h0.603
				c0.544-0.003,1.043-0.301,1.302-0.778c0.262,0.479,0.766,0.777,1.313,0.775h0.603c-0.24,0.25-0.549,0.423-0.888,0.496
				c-0.112-0.224-0.206-0.387-0.216-0.404L12.187,16.803z M16.427,12.522l-0.02,0.015c-0.208,0.174-0.439,0.343-0.665,0.496h-0.193
				c0.032-0.424,0.111-0.807,0.266-0.92c0.082-0.064,0.097-0.185,0.032-0.267s-0.184-0.097-0.266-0.031
				c-0.248,0.206-0.356,0.654-0.404,1.197h-0.151c-0.1-0.006-0.185,0.071-0.19,0.171c0,0.004,0,0.008,0,0.011
				c-0.003,0.103,0.078,0.188,0.181,0.19l0,0h0.139v0.185H15.11c-0.102-0.008-0.19,0.066-0.201,0.168
				c-0.009,0.103,0.066,0.191,0.169,0.201h0.052c0.007,0.422-0.039,0.843-0.139,1.252c-0.35,0.931-0.769,1.126-1.377,1.155h-0.938
				c-0.613-0.002-1.113-0.492-1.124-1.105c0.087-0.081,0.184-0.151,0.288-0.208c0.248-0.159,0.612-0.377,0.479-0.692
				c-0.047-0.107-0.015-0.161,0.411-0.451l0.156-0.105c0.186-0.101,0.308-0.286,0.323-0.496c-0.012-0.162-0.1-0.309-0.236-0.396
				c-0.084-0.052-0.193-0.026-0.248,0.056c-0.049,0.083-0.026,0.189,0.053,0.248c0.02,0.015,0.064,0.057,0.066,0.092
				c0.003,0.034-0.042,0.102-0.163,0.186l-0.154,0.106c-0.404,0.272-0.722,0.496-0.545,0.886c-0.021,0.063-0.221,0.185-0.33,0.248
				c-0.098,0.058-0.191,0.121-0.28,0.19c-0.089-0.069-0.183-0.135-0.28-0.19c-0.118-0.063-0.229-0.143-0.33-0.229
				c0.177-0.414-0.144-0.631-0.545-0.905l-0.154-0.106C9.944,13.383,9.9,13.316,9.9,13.281c0-0.034,0.044-0.077,0.064-0.092
				c0.083-0.061,0.102-0.177,0.042-0.261c-0.056-0.077-0.161-0.1-0.243-0.053c-0.137,0.088-0.224,0.235-0.235,0.396
				c0.016,0.21,0.137,0.396,0.322,0.495l0.156,0.107c0.429,0.29,0.459,0.342,0.411,0.451c-0.134,0.316,0.221,0.533,0.479,0.69
				c0.101,0.059,0.196,0.121,0.288,0.191c-0.003,0.619-0.506,1.12-1.126,1.12H9.672c-0.923,0.021-1.488,0.035-1.93-1.155
				c-0.099-0.41-0.146-0.83-0.139-1.252h0.052c0.104-0.009,0.179-0.1,0.17-0.202c-0.009-0.102-0.099-0.179-0.202-0.17H7.589v-0.184
				h0.139c0.103,0,0.187-0.083,0.187-0.188c0-0.103-0.084-0.186-0.187-0.186H7.576C7.529,12.449,7.432,12,7.172,11.795
				c-0.087-0.071-0.215-0.058-0.285,0.029c-0.07,0.087-0.057,0.215,0.03,0.285c0.153,0.121,0.226,0.496,0.263,0.92H6.944
				c-0.211-0.158-0.422-0.325-0.615-0.496c-0.011-0.013-0.023-0.024-0.037-0.034c-0.064-0.058-0.129-0.114-0.188-0.172l0.577,0.038
				h0.016c0.103,0.004,0.189-0.076,0.193-0.179c0.004-0.104-0.076-0.189-0.179-0.193c0,0-0.39-0.03-0.992-0.063
				c-1.349-1.53-1.384-3.021-1.17-3.696c0-0.02,0.577-1.89,0.057-2.71C4.485,5.33,4.286,5.2,4.06,5.17
				C3.906,5.149,3.856,4.922,3.812,4.602C3.791,4.446,3.754,4.294,3.703,4.145C3.608,3.954,3.47,3.788,3.299,3.662
				C2.994,3.424,2.756,3.11,2.61,2.752C2.361,2.167,2.552,1.845,2.634,1.74c0.182-0.016,0.363,0.031,0.514,0.134
				c0.017,0.015,1.864,1.369,2.675,1.369H5.91C5.166,3.776,4.729,4.458,4.729,5.125c0,0.103,0.083,0.187,0.186,0.187
				c0.104,0,0.187-0.084,0.187-0.187c0-0.696,0.645-1.461,1.644-1.949c0.39-0.058,0.766-0.183,1.111-0.369
				c0.09-0.048,0.124-0.162,0.077-0.252c-0.047-0.09-0.16-0.125-0.251-0.077c-0.003,0-0.005,0.002-0.007,0.003
				C7.094,2.769,6.449,2.903,5.801,2.873c-0.31,0-0.902-0.3-1.453-0.632C5.131,2.593,6.05,2.422,6.654,1.812
				c0.991-0.948,1.609-1.277,4.711-1.277c3.103,0,3.72,0.332,4.712,1.277c0.378,0.384,0.893,0.603,1.431,0.607
				c0.293-0.005,0.581-0.062,0.854-0.169c-0.548,0.33-1.141,0.627-1.448,0.627c-0.648,0.03-1.293-0.104-1.875-0.392
				c-0.091-0.048-0.203-0.014-0.251,0.077c-0.047,0.088-0.016,0.197,0.07,0.248c0.348,0.188,0.727,0.315,1.118,0.374
				c0.992,0.496,1.645,1.24,1.645,1.949c0,0.103,0.083,0.188,0.186,0.188s0.186-0.084,0.186-0.188c0-0.669-0.438-1.352-1.18-1.882
				h0.108c0.812,0,2.659-1.354,2.676-1.369c0.15-0.102,0.331-0.149,0.512-0.134c0.081,0.106,0.26,0.429,0.024,1.012
				c-0.147,0.358-0.385,0.672-0.689,0.91c-0.172,0.127-0.311,0.292-0.404,0.483c-0.052,0.148-0.088,0.301-0.109,0.456
				c-0.057,0.33-0.104,0.549-0.248,0.568c-0.23,0.028-0.437,0.16-0.558,0.359c-0.523,0.821,0.05,2.693,0.057,2.711
				c0.216,0.677,0.179,2.167-1.17,3.699c-0.593,0.032-0.992,0.063-0.992,0.063c-0.103,0.004-0.183,0.091-0.179,0.193
				c0.005,0.103,0.091,0.183,0.193,0.179h0.016l0.577-0.037C16.573,12.403,16.496,12.463,16.427,12.522z"/>
			<path d="M15.028,6.293c0.056,0,0.108-0.025,0.144-0.069l0.791-0.972c0.067-0.078,0.06-0.195-0.019-0.263
				c-0.077-0.067-0.194-0.06-0.262,0.019c-0.003,0.003-0.005,0.005-0.007,0.008l-0.791,0.973c-0.064,0.08-0.052,0.197,0.028,0.262
				C14.944,6.277,14.985,6.291,15.028,6.293L15.028,6.293L15.028,6.293z M14.11,5.792c0.022,0.004,0.045,0.004,0.067,0
				c0.077,0,0.146-0.047,0.174-0.119l0.35-0.912c0.037-0.096-0.011-0.204-0.106-0.241c-0.097-0.036-0.204,0.012-0.241,0.107
				l-0.35,0.912c-0.043,0.094-0.002,0.204,0.092,0.247C14.101,5.788,14.105,5.79,14.11,5.792z M13.35,5.715
				c0.103-0.008,0.179-0.097,0.171-0.199V5.515l-0.062-0.791c-0.009-0.103-0.099-0.18-0.201-0.171
				c-0.103,0.008-0.18,0.098-0.171,0.2l0.062,0.791C13.156,5.646,13.246,5.724,13.35,5.715C13.349,5.716,13.349,5.715,13.35,5.715z"
				/>
			<circle cx="8.422" cy="14.305" r="0.26"/> 
			<circle cx="8.509" cy="15.191" r="0.26"/> 
			<circle cx="9.188" cy="15.773" r="0.261"/> 
			<circle cx="9.416" cy="14.869" r="0.26"/> 
			<circle cx="10.141" cy="15.325" r="0.26"/> 
			<circle cx="14.31" cy="14.305" r="0.26"/> 
			<circle cx="14.223" cy="15.191" r="0.26"/> 
			<circle cx="13.543" cy="15.773" r="0.261"/> 
			<circle cx="13.314" cy="14.869" r="0.26"/> 
			<circle cx="12.591" cy="15.325" r="0.26"/> 
			<path d="M12.248,10.006c-0.103-0.009-0.192,0.067-0.2,0.17c0,0,0,0,0,0.001c-0.07,0.511-0.311,0.98-0.683,1.336
				c-0.37-0.355-0.609-0.827-0.677-1.339c-0.008-0.103-0.098-0.179-0.201-0.171s-0.179,0.099-0.171,0.201
				c0.09,0.661,0.419,1.266,0.925,1.701c0.033,0.025,0.074,0.042,0.117,0.042c0.042,0,0.083-0.017,0.116-0.042
				c0.506-0.437,0.835-1.04,0.925-1.701C12.407,10.108,12.342,10.022,12.248,10.006z M8.978,10.675
				c-0.087-0.047-0.196-0.018-0.248,0.067c-0.05,0.087-0.114,0.179-0.181,0.274c-0.333,0.48-0.834,1.21-0.127,1.983
				c0.079,0.066,0.196,0.056,0.262-0.021c0.055-0.064,0.059-0.156,0.011-0.227c-0.469-0.508-0.23-0.947,0.159-1.513
				c0.072-0.106,0.142-0.206,0.196-0.3c0.055-0.088,0.029-0.202-0.058-0.258C8.987,10.681,8.982,10.678,8.978,10.675z
				 M14.017,10.742c-0.052-0.089-0.165-0.12-0.254-0.068c-0.09,0.052-0.12,0.165-0.068,0.254c0.055,0.096,0.124,0.193,0.195,0.301
				c0.39,0.564,0.628,1.005,0.159,1.513c-0.079,0.065-0.089,0.184-0.022,0.263c0.065,0.078,0.184,0.089,0.262,0.022
				c0.013-0.012,0.024-0.023,0.033-0.037c0.707-0.767,0.206-1.487-0.126-1.983C14.133,10.921,14.068,10.829,14.017,10.742z
				 M9.354,13.105c0.031-0.1-0.022-0.203-0.12-0.234C9.136,12.84,9.031,12.895,9,12.991c-0.144,0.46,0.054,0.958,0.474,1.195
				c0.089,0.052,0.202,0.021,0.254-0.068s0.021-0.203-0.068-0.254C9.392,13.715,9.264,13.398,9.354,13.105z M13.255,14.179
				c0.42-0.236,0.617-0.733,0.474-1.194c-0.031-0.099-0.136-0.151-0.234-0.12c-0.098,0.031-0.151,0.137-0.12,0.233l0,0
				c0.087,0.291-0.04,0.604-0.305,0.752c-0.089,0.052-0.12,0.165-0.068,0.255c0.052,0.089,0.165,0.118,0.254,0.067L13.255,14.179
				L13.255,14.179z M12.08,13.143c-0.346,0.396-0.945,0.437-1.341,0.092c-0.032-0.028-0.063-0.06-0.091-0.092
				c-0.068-0.078-0.188-0.089-0.268-0.02c-0.079,0.068-0.088,0.188-0.02,0.268c0.474,0.554,1.307,0.617,1.86,0.145
				c0.051-0.044,0.1-0.093,0.144-0.145c0.068-0.079,0.06-0.198-0.021-0.268c-0.079-0.069-0.199-0.06-0.268,0.02H12.08z M6.532,9.515
				C6.446,9.458,6.331,9.481,6.274,9.566C6.218,9.652,6.241,9.768,6.327,9.824C6.335,9.83,6.345,9.835,6.354,9.839
				c0.652,0.36,0.936,0.892,0.936,1.082c0,0.104,0.083,0.187,0.186,0.187s0.186-0.083,0.186-0.187
				C7.66,10.536,7.239,9.903,6.532,9.515z M16.472,9.589c-0.049-0.088-0.159-0.121-0.248-0.074
				c-0.712,0.389-1.139,1.021-1.139,1.408c0,0.104,0.084,0.188,0.187,0.188s0.186-0.084,0.186-0.188
				c0-0.189,0.283-0.724,0.936-1.081c0.091-0.047,0.127-0.159,0.08-0.25C16.473,9.591,16.472,9.59,16.472,9.589z"/>
		</g>
		
			<g id="_x35_4c8ca41-f910-4170-8f82-6d26474b6f31" i:knockout="Off" i:layer="yes" i:dimmedPercent="50" i:rgbTrio="#4F004F00FFFF">
			<path stroke="#000000" stroke-width="0.3402" d="M28.974,18.577l-0.354-0.883h-1.344l-0.351,0.883h-0.224l1.121-2.812h0.252
				l1.122,2.812H28.974z M27.354,17.5h1.189l-0.489-1.226l-0.104-0.297h-0.003l-0.103,0.286L27.354,17.5z M31.89,17.203h1.154v1.374
				h-0.171l-0.009-0.49l0,0c-0.075,0.17-0.194,0.3-0.357,0.395l0,0l0,0c-0.166,0.091-0.366,0.136-0.607,0.136l0,0l0,0
				c-0.258,0-0.479-0.059-0.671-0.178l0,0l0,0c-0.192-0.116-0.339-0.284-0.445-0.503l0,0l0,0c-0.103-0.22-0.154-0.474-0.154-0.767
				l0,0l0,0c0-0.292,0.055-0.546,0.159-0.766l0,0l0,0c0.106-0.22,0.255-0.388,0.448-0.505l0,0l0,0
				c0.192-0.118,0.416-0.177,0.673-0.177l0,0l0,0c0.286,0,0.521,0.059,0.702,0.171l0,0l0,0c0.181,0.112,0.32,0.286,0.411,0.52l0,0
				l-0.199,0.102l0,0c-0.063-0.197-0.174-0.343-0.328-0.443l0,0l0,0c-0.155-0.102-0.35-0.152-0.586-0.152l0,0l0,0
				c-0.209,0-0.394,0.051-0.554,0.152l0,0l0,0c-0.159,0.101-0.282,0.244-0.368,0.435l0,0l0,0c-0.089,0.188-0.132,0.411-0.132,0.665
				l0,0l0,0c0,0.389,0.091,0.696,0.279,0.919l0,0l0,0c0.186,0.224,0.443,0.333,0.773,0.333l0,0l0,0c0.204,0,0.377-0.038,0.52-0.12
				l0,0l0,0c0.141-0.08,0.245-0.187,0.312-0.318l0,0l0,0c0.069-0.132,0.104-0.276,0.104-0.427l0,0v-0.155h-0.954L31.89,17.203
				L31.89,17.203z M35.123,18.381h1.772v0.196h-1.986v-2.812h1.92v0.194h-1.706v1.085h1.347v0.2h-1.347V18.381z M40.838,15.766
				v2.812h-0.265l-1.49-2.203l-0.207-0.377H38.87l0.016,0.352v2.229h-0.207v-2.812h0.27l1.484,2.201l0.213,0.378l-0.009-0.353
				v-2.227H40.838z M45.053,17.864L45.053,17.864c-0.079,0.239-0.22,0.427-0.414,0.557l0,0l0,0
				c-0.198,0.132-0.436,0.197-0.709,0.197l0,0l0,0c-0.255,0-0.48-0.059-0.675-0.178l0,0l0,0c-0.192-0.116-0.34-0.284-0.446-0.503
				l0,0l0,0c-0.104-0.221-0.155-0.474-0.155-0.767l0,0l0,0c0-0.292,0.052-0.547,0.155-0.766l0,0l0,0
				c0.104-0.22,0.254-0.388,0.446-0.505l0,0l0,0c0.194-0.118,0.418-0.177,0.67-0.177l0,0l0,0c0.563,0,0.927,0.23,1.092,0.694l0,0
				l-0.209,0.098l0,0c-0.065-0.199-0.17-0.349-0.314-0.446l0,0l0,0c-0.142-0.102-0.329-0.149-0.556-0.149l0,0l0,0
				c-0.207,0-0.394,0.05-0.555,0.151l0,0l0,0c-0.159,0.102-0.284,0.245-0.372,0.436l0,0l0,0c-0.089,0.188-0.132,0.411-0.132,0.665
				l0,0l0,0c0,0.257,0.043,0.477,0.132,0.667l0,0l0,0c0.084,0.188,0.206,0.332,0.363,0.434l0,0l0,0
				c0.159,0.103,0.345,0.151,0.557,0.151l0,0l0,0c0.228,0,0.421-0.054,0.578-0.166l0,0l0,0c0.159-0.111,0.27-0.27,0.332-0.472l0,0
				L45.053,17.864z M47.029,18.381h1.778v0.196h-1.99v-2.812h1.918v0.194h-1.706v1.085h1.351v0.2h-1.351V18.381z M54.228,15.766
				L54.228,15.766c0.449,0,0.796,0.12,1.038,0.356l0,0l0,0c0.245,0.235,0.366,0.579,0.366,1.028l0,0l0,0
				c0,0.459-0.121,0.811-0.366,1.059l0,0l0,0c-0.242,0.244-0.589,0.368-1.038,0.368l0,0h-0.883v-2.812H54.228z M54.247,18.381
				L54.247,18.381c0.377,0,0.663-0.105,0.861-0.317l0,0l0,0c0.199-0.212,0.3-0.516,0.3-0.912l0,0l0,0c0-0.382-0.101-0.677-0.3-0.881
				l0,0l0,0c-0.198-0.205-0.485-0.309-0.861-0.309l0,0h-0.69v2.419H54.247z M57.689,18.381h1.772v0.196h-1.985v-2.812h1.918v0.194
				h-1.705v1.085h1.347v0.2h-1.347V18.381z M65.313,16.604l-0.567,1.973h-0.264l-0.877-2.812h0.232l0.779,2.637l0.735-2.637h0.247
				l0.736,2.639l0.787-2.639h0.22l-0.88,2.812H66.2l-0.568-1.973l-0.154-0.607h-0.006L65.313,16.604z M69.139,18.381h1.776v0.196
				h-1.989v-2.812h1.922v0.194h-1.709v1.085h1.351v0.2h-1.351V18.381z M72.715,18.577v-2.812h0.99l0,0
				c0.309,0,0.541,0.064,0.691,0.191l0,0l0,0c0.15,0.129,0.225,0.312,0.225,0.554l0,0l0,0c0,0.164-0.044,0.303-0.133,0.417l0,0l0,0
				c-0.088,0.111-0.217,0.186-0.38,0.223l0,0v0.003l0,0c0.181,0.027,0.326,0.104,0.431,0.221l0,0l0,0
				c0.107,0.119,0.163,0.269,0.163,0.442l0,0l0,0c0,0.242-0.086,0.43-0.261,0.561l0,0l0,0c-0.172,0.132-0.416,0.199-0.734,0.199l0,0
				L72.715,18.577L72.715,18.577z M72.927,17.063h0.785l0,0c0.456,0,0.685-0.184,0.685-0.551l0,0l0,0c0-0.367-0.229-0.55-0.685-0.55
				l0,0h-0.785V17.063z M72.927,18.381h0.821l0,0c0.24,0,0.42-0.049,0.541-0.145l0,0l0,0c0.122-0.097,0.182-0.236,0.182-0.419l0,0
				l0,0c0-0.182-0.061-0.324-0.182-0.419l0,0l0,0c-0.121-0.092-0.3-0.141-0.541-0.141l0,0h-0.821V18.381z M80.193,15.766
				L80.193,15.766c0.45,0,0.796,0.12,1.037,0.356l0,0l0,0c0.243,0.235,0.366,0.579,0.366,1.028l0,0l0,0
				c0,0.459-0.123,0.811-0.366,1.059l0,0l0,0c-0.241,0.244-0.587,0.368-1.037,0.368l0,0H79.31v-2.812H80.193z M80.212,18.381
				L80.212,18.381c0.377,0,0.663-0.105,0.863-0.317l0,0l0,0c0.199-0.212,0.3-0.516,0.3-0.912l0,0l0,0c0-0.382-0.101-0.677-0.3-0.881
				l0,0l0,0c-0.2-0.205-0.487-0.309-0.863-0.309l0,0h-0.69v2.419H80.212z M83.654,18.381h1.776v0.196h-1.989v-2.812h1.918v0.194
				h-1.705v1.085h1.35v0.2h-1.35V18.381z M88.123,15.724L88.123,15.724c0.53,0,0.884,0.208,1.062,0.62l0,0l-0.183,0.15l0,0
				c-0.071-0.202-0.176-0.348-0.32-0.439l0,0l0,0c-0.14-0.09-0.323-0.136-0.553-0.136l0,0l0,0c-0.165,0-0.309,0.025-0.432,0.077l0,0
				l0,0c-0.121,0.052-0.215,0.121-0.276,0.207l0,0l0,0c-0.066,0.089-0.098,0.189-0.098,0.299l0,0l0,0
				c0,0.106,0.027,0.196,0.082,0.268l0,0l0,0c0.052,0.071,0.144,0.13,0.273,0.183l0,0l0,0c0.129,0.049,0.31,0.091,0.536,0.132l0,0
				l0,0c0.364,0.063,0.624,0.154,0.777,0.274l0,0l0,0c0.151,0.117,0.229,0.281,0.229,0.491l0,0l0,0c0,0.15-0.042,0.285-0.13,0.401
				l0,0l0,0c-0.087,0.116-0.211,0.205-0.372,0.269l0,0l0,0c-0.162,0.064-0.346,0.097-0.553,0.097l0,0l0,0
				c-0.295,0-0.541-0.059-0.744-0.178l0,0l0,0c-0.206-0.116-0.346-0.281-0.418-0.493l0,0l0.187-0.146l0,0
				c0.059,0.203,0.174,0.356,0.342,0.462l0,0l0,0c0.173,0.108,0.385,0.16,0.639,0.16l0,0l0,0c0.243,0,0.442-0.048,0.596-0.147l0,0
				l0,0c0.156-0.099,0.233-0.235,0.233-0.411l0,0l0,0c0-0.15-0.063-0.268-0.189-0.354l0,0l0,0c-0.127-0.088-0.347-0.162-0.658-0.214
				l0,0l0,0c-0.264-0.046-0.472-0.102-0.626-0.167l0,0l0,0c-0.151-0.065-0.26-0.146-0.331-0.243l0,0l0,0
				c-0.066-0.094-0.1-0.217-0.1-0.362l0,0l0,0c0-0.143,0.043-0.278,0.128-0.398l0,0l0,0c0.081-0.124,0.201-0.221,0.357-0.292l0,0
				l0,0C87.736,15.761,87.917,15.724,88.123,15.724L88.123,15.724z M91.43,15.766v2.812h-0.213v-2.812H91.43z M94.696,17.203h1.152
				v1.374h-0.17l-0.006-0.49l0,0c-0.079,0.17-0.199,0.3-0.363,0.395l0,0l0,0c-0.162,0.091-0.363,0.136-0.605,0.136l0,0l0,0
				c-0.254,0-0.479-0.059-0.67-0.178l0,0l0,0c-0.191-0.116-0.337-0.284-0.44-0.503l0,0l0,0c-0.104-0.22-0.155-0.474-0.155-0.767l0,0
				l0,0c0-0.292,0.052-0.546,0.157-0.766l0,0l0,0c0.108-0.22,0.259-0.388,0.451-0.505l0,0l0,0c0.19-0.118,0.415-0.177,0.67-0.177
				l0,0l0,0c0.287,0,0.521,0.059,0.703,0.171l0,0l0,0c0.181,0.112,0.318,0.286,0.407,0.52l0,0l-0.194,0.102l0,0
				c-0.064-0.197-0.174-0.343-0.329-0.443l0,0l0,0c-0.156-0.102-0.351-0.152-0.588-0.152l0,0l0,0c-0.209,0-0.394,0.051-0.552,0.152
				l0,0l0,0c-0.158,0.101-0.282,0.244-0.373,0.435l0,0l0,0c-0.084,0.188-0.129,0.411-0.129,0.665l0,0l0,0
				c0,0.389,0.094,0.696,0.281,0.919l0,0l0,0c0.183,0.224,0.439,0.333,0.771,0.333l0,0l0,0c0.203,0,0.376-0.038,0.518-0.12l0,0l0,0
				c0.143-0.08,0.247-0.187,0.316-0.318l0,0l0,0c0.07-0.132,0.104-0.276,0.104-0.427l0,0v-0.155h-0.955V17.203z M99.857,15.766
				v2.812h-0.266l-1.489-2.203l-0.207-0.377H97.89l0.013,0.352v2.229h-0.203v-2.812h0.266l1.488,2.201l0.213,0.378l-0.01-0.353
				v-2.227H99.857z"/>
		</g>
	</svg>
